<?xml version="1.0" encoding="UTF-8" standalone="no"?>
<!DOCTYPE svg PUBLIC "-//W3C//DTD SVG 1.1//EN"
 "http://www.w3.org/Graphics/SVG/1.1/DTD/svg11.dtd">
<!-- Generated by graphviz version 2.43.0 (0)
 -->
<!-- Title: handle_help Pages: 1 -->
<svg width="341pt" height="27pt"
 viewBox="0.00 0.00 341.00 27.00" xmlns="http://www.w3.org/2000/svg" xmlns:xlink="http://www.w3.org/1999/xlink">
<g id="graph0" class="graph" transform="scale(1 1) rotate(0) translate(4 23)">
<title>handle_help</title>
<!-- Node1 -->
<g id="node1" class="node">
<title>Node1</title>
<g id="a_node1"><a xlink:title=" ">
<polygon fill="#999999" stroke="#666666" points="76,-19 0,-19 0,0 76,0 76,-19"/>
<text text-anchor="middle" x="38" y="-7" font-family="Helvetica,sans-Serif" font-size="10.00">handle_help</text>
</a>
</g>
</g>
<!-- Node2 -->
<g id="node2" class="node">
<title>Node2</title>
<g id="a_node2"><a xlink:href="usb__config_8c.html#aa2441e04fd44ec2f8c7b9d3029a426b6" target="_top" xlink:title=" ">
<polygon fill="white" stroke="#666666" points="196,-19 112,-19 112,0 196,0 196,-19"/>
<text text-anchor="middle" x="154" y="-7" font-family="Helvetica,sans-Serif" font-size="10.00">USB_Transmit</text>
</a>
</g>
</g>
<!-- Node1&#45;&gt;Node2 -->
<g id="edge1" class="edge">
<title>Node1&#45;&gt;Node2</title>
<path fill="none" stroke="#63b8ff" d="M76.01,-9.5C84.24,-9.5 93.1,-9.5 101.78,-9.5"/>
<polygon fill="#63b8ff" stroke="#63b8ff" points="101.83,-13 111.83,-9.5 101.83,-6 101.83,-13"/>
</g>
<!-- Node3 -->
<g id="node3" class="node">
<title>Node3</title>
<g id="a_node3"><a xlink:href="group__USBD__CDC__Private__FunctionPrototypes.html#ga5137d6201dbdef2bf351c5b4941c24f4" target="_top" xlink:title=" ">
<polygon fill="white" stroke="#666666" points="333,-19 232,-19 232,0 333,0 333,-19"/>
<text text-anchor="middle" x="282.5" y="-7" font-family="Helvetica,sans-Serif" font-size="10.00">CDC_Transmit_FS</text>
</a>
</g>
</g>
<!-- Node2&#45;&gt;Node3 -->
<g id="edge2" class="edge">
<title>Node2&#45;&gt;Node3</title>
<path fill="none" stroke="#63b8ff" d="M196.07,-9.5C204.26,-9.5 213.02,-9.5 221.7,-9.5"/>
<polygon fill="#63b8ff" stroke="#63b8ff" points="221.8,-13 231.8,-9.5 221.8,-6 221.8,-13"/>
</g>
</g>
</svg>
