<?xml version="1.0" encoding="UTF-8" standalone="no"?>
<!DOCTYPE svg PUBLIC "-//W3C//DTD SVG 1.1//EN"
 "http://www.w3.org/Graphics/SVG/1.1/DTD/svg11.dtd">
<!-- Generated by graphviz version 2.43.0 (0)
 -->
<!-- Title: GPS_AlignBuffer Pages: 1 -->
<svg width="468pt" height="27pt"
 viewBox="0.00 0.00 468.00 27.00" xmlns="http://www.w3.org/2000/svg" xmlns:xlink="http://www.w3.org/1999/xlink">
<g id="graph0" class="graph" transform="scale(1 1) rotate(0) translate(4 23)">
<title>GPS_AlignBuffer</title>
<!-- Node1 -->
<g id="node1" class="node">
<title>Node1</title>
<g id="a_node1"><a xlink:title="Szuka nagłówka NAV&#45;PVT w buforze 256B i kopiuje 100B na początek bufora roboczego.">
<polygon fill="#999999" stroke="#666666" points="460,-19 365,-19 365,0 460,0 460,-19"/>
<text text-anchor="middle" x="412.5" y="-7" font-family="Helvetica,sans-Serif" font-size="10.00">GPS_AlignBuffer</text>
</a>
</g>
</g>
<!-- Node2 -->
<g id="node2" class="node">
<title>Node2</title>
<g id="a_node2"><a xlink:href="gps__task_8c.html#a2b4ba50a0ecdfbe3864bc6cf9ad0b8b4" target="_top" xlink:title=" ">
<polygon fill="white" stroke="#666666" points="329,-19 269,-19 269,0 329,0 329,-19"/>
<text text-anchor="middle" x="299" y="-7" font-family="Helvetica,sans-Serif" font-size="10.00">gps_task</text>
</a>
</g>
</g>
<!-- Node1&#45;&gt;Node2 -->
<g id="edge1" class="edge">
<title>Node1&#45;&gt;Node2</title>
<path fill="none" stroke="#63b8ff" d="M354.6,-9.5C345.84,-9.5 337.11,-9.5 329.28,-9.5"/>
<polygon fill="#63b8ff" stroke="#63b8ff" points="354.86,-13 364.86,-9.5 354.86,-6 354.86,-13"/>
</g>
<!-- Node3 -->
<g id="node3" class="node">
<title>Node3</title>
<g id="a_node3"><a xlink:href="gps__task_8c.html#ae757343c80f47f1e3f63a2a86c62220a" target="_top" xlink:title=" ">
<polygon fill="white" stroke="#666666" points="233,-19 145,-19 145,0 233,0 233,-19"/>
<text text-anchor="middle" x="189" y="-7" font-family="Helvetica,sans-Serif" font-size="10.00">start_gps_task</text>
</a>
</g>
</g>
<!-- Node2&#45;&gt;Node3 -->
<g id="edge2" class="edge">
<title>Node2&#45;&gt;Node3</title>
<path fill="none" stroke="#63b8ff" d="M258.58,-9.5C250.28,-9.5 241.47,-9.5 233.04,-9.5"/>
<polygon fill="#63b8ff" stroke="#63b8ff" points="258.77,-13 268.77,-9.5 258.77,-6 258.77,-13"/>
</g>
<!-- Node4 -->
<g id="node4" class="node">
<title>Node4</title>
<g id="a_node4"><a xlink:href="app__freertos_8c.html#abade755e13d07c10889ae83143656158" target="_top" xlink:title="FreeRTOS initialization.">
<polygon fill="white" stroke="#666666" points="109,-19 0,-19 0,0 109,0 109,-19"/>
<text text-anchor="middle" x="54.5" y="-7" font-family="Helvetica,sans-Serif" font-size="10.00">MX_FREERTOS_Init</text>
</a>
</g>
</g>
<!-- Node3&#45;&gt;Node4 -->
<g id="edge3" class="edge">
<title>Node3&#45;&gt;Node4</title>
<path fill="none" stroke="#63b8ff" d="M134.93,-9.5C126.54,-9.5 117.85,-9.5 109.44,-9.5"/>
<polygon fill="#63b8ff" stroke="#63b8ff" points="134.98,-13 144.98,-9.5 134.98,-6 134.98,-13"/>
</g>
</g>
</svg>
