<?xml version="1.0" encoding="UTF-8" standalone="no"?>
<!DOCTYPE svg PUBLIC "-//W3C//DTD SVG 1.1//EN"
 "http://www.w3.org/Graphics/SVG/1.1/DTD/svg11.dtd">
<!-- Generated by graphviz version 2.43.0 (0)
 -->
<!-- Title: app/include/lora_config.h Pages: 1 -->
<svg width="2152pt" height="302pt"
 viewBox="0.00 0.00 2151.85 302.00" xmlns="http://www.w3.org/2000/svg" xmlns:xlink="http://www.w3.org/1999/xlink">
<g id="graph0" class="graph" transform="scale(1 1) rotate(0) translate(4 298)">
<title>app/include/lora_config.h</title>
<!-- Node1 -->
<g id="node1" class="node">
<title>Node1</title>
<g id="a_node1"><a xlink:title=" ">
<polygon fill="#999999" stroke="#666666" points="337.35,-294 199.35,-294 199.35,-275 337.35,-275 337.35,-294"/>
<text text-anchor="middle" x="268.35" y="-282" font-family="Helvetica,sans-Serif" font-size="10.00">app/include/lora_config.h</text>
</a>
</g>
</g>
<!-- Node2 -->
<g id="node2" class="node">
<title>Node2</title>
<g id="a_node2"><a xlink:href="sx1280_8h.html" target="_top" xlink:title=" ">
<polygon fill="white" stroke="#666666" points="185.85,-239 124.85,-239 124.85,-220 185.85,-220 185.85,-239"/>
<text text-anchor="middle" x="155.35" y="-227" font-family="Helvetica,sans-Serif" font-size="10.00">sx1280.h</text>
</a>
</g>
</g>
<!-- Node1&#45;&gt;Node2 -->
<g id="edge1" class="edge">
<title>Node1&#45;&gt;Node2</title>
<path fill="none" stroke="#63b8ff" d="M250.19,-274.98C232.1,-266.5 204.06,-253.35 183.16,-243.54"/>
<polygon fill="#63b8ff" stroke="#63b8ff" points="184.38,-240.25 173.84,-239.17 181.4,-246.59 184.38,-240.25"/>
</g>
<!-- Node7 -->
<g id="node7" class="node">
<title>Node7</title>
<g id="a_node7"><a xlink:href="rfm95w_8h.html" target="_top" xlink:title=" ">
<polygon fill="white" stroke="#666666" points="299.35,-184 237.35,-184 237.35,-165 299.35,-165 299.35,-184"/>
<text text-anchor="middle" x="268.35" y="-172" font-family="Helvetica,sans-Serif" font-size="10.00">rfm95w.h</text>
</a>
</g>
</g>
<!-- Node1&#45;&gt;Node7 -->
<g id="edge9" class="edge">
<title>Node1&#45;&gt;Node7</title>
<path fill="none" stroke="#63b8ff" d="M268.35,-274.66C268.35,-257.17 268.35,-217.8 268.35,-194.27"/>
<polygon fill="#63b8ff" stroke="#63b8ff" points="271.85,-194.16 268.35,-184.16 264.85,-194.16 271.85,-194.16"/>
</g>
<!-- Node15 -->
<g id="node15" class="node">
<title>Node15</title>
<g id="a_node15"><a xlink:href="spi_8h.html" target="_top" xlink:title="This file contains all the function prototypes for the spi.c file.">
<polygon fill="white" stroke="#666666" points="805.35,-239 765.35,-239 765.35,-220 805.35,-220 805.35,-239"/>
<text text-anchor="middle" x="785.35" y="-227" font-family="Helvetica,sans-Serif" font-size="10.00">spi.h</text>
</a>
</g>
</g>
<!-- Node1&#45;&gt;Node15 -->
<g id="edge20" class="edge">
<title>Node1&#45;&gt;Node15</title>
<path fill="none" stroke="#63b8ff" d="M337.54,-276.41C451.56,-264.72 674.36,-241.88 755.16,-233.59"/>
<polygon fill="#63b8ff" stroke="#63b8ff" points="755.57,-237.07 765.17,-232.57 754.86,-230.11 755.57,-237.07"/>
</g>
<!-- Node3 -->
<g id="node3" class="node">
<title>Node3</title>
<g id="a_node3"><a xlink:title=" ">
<polygon fill="#e0e0e0" stroke="#999999" points="180.85,-184 129.85,-184 129.85,-165 180.85,-165 180.85,-184"/>
<text text-anchor="middle" x="155.35" y="-172" font-family="Helvetica,sans-Serif" font-size="10.00">math.h</text>
</a>
</g>
</g>
<!-- Node2&#45;&gt;Node3 -->
<g id="edge2" class="edge">
<title>Node2&#45;&gt;Node3</title>
<path fill="none" stroke="#63b8ff" d="M155.35,-219.75C155.35,-212.8 155.35,-202.85 155.35,-194.13"/>
<polygon fill="#63b8ff" stroke="#63b8ff" points="158.85,-194.09 155.35,-184.09 151.85,-194.09 158.85,-194.09"/>
</g>
<!-- Node4 -->
<g id="node4" class="node">
<title>Node4</title>
<g id="a_node4"><a xlink:title=" ">
<polygon fill="#e0e0e0" stroke="#999999" points="143.35,-129 81.35,-129 81.35,-110 143.35,-110 143.35,-129"/>
<text text-anchor="middle" x="112.35" y="-117" font-family="Helvetica,sans-Serif" font-size="10.00">stdbool.h</text>
</a>
</g>
</g>
<!-- Node2&#45;&gt;Node4 -->
<g id="edge3" class="edge">
<title>Node2&#45;&gt;Node4</title>
<path fill="none" stroke="#63b8ff" d="M165.99,-219.78C179.69,-207.45 200.47,-184.28 189.35,-165 180.93,-150.41 165.7,-140.17 151,-133.23"/>
<polygon fill="#63b8ff" stroke="#63b8ff" points="152.06,-129.87 141.49,-129.13 149.28,-136.3 152.06,-129.87"/>
</g>
<!-- Node5 -->
<g id="node5" class="node">
<title>Node5</title>
<g id="a_node5"><a xlink:title=" ">
<polygon fill="#e0e0e0" stroke="#999999" points="62.85,-129 9.85,-129 9.85,-110 62.85,-110 62.85,-129"/>
<text text-anchor="middle" x="36.35" y="-117" font-family="Helvetica,sans-Serif" font-size="10.00">stdint.h</text>
</a>
</g>
</g>
<!-- Node2&#45;&gt;Node5 -->
<g id="edge4" class="edge">
<title>Node2&#45;&gt;Node5</title>
<path fill="none" stroke="#63b8ff" d="M124.78,-229.4C89.29,-228.58 32.09,-221.1 4.35,-184 -6.77,-169.12 6.23,-149.8 18.85,-136.39"/>
<polygon fill="#63b8ff" stroke="#63b8ff" points="21.4,-138.79 26.04,-129.26 16.48,-133.81 21.4,-138.79"/>
</g>
<!-- Node6 -->
<g id="node6" class="node">
<title>Node6</title>
<g id="a_node6"><a xlink:href="sx1280-hal_8h.html" target="_top" xlink:title=" ">
<polygon fill="white" stroke="#666666" points="93.35,-184 13.35,-184 13.35,-165 93.35,-165 93.35,-184"/>
<text text-anchor="middle" x="53.35" y="-172" font-family="Helvetica,sans-Serif" font-size="10.00">sx1280&#45;hal.h</text>
</a>
</g>
</g>
<!-- Node2&#45;&gt;Node6 -->
<g id="edge5" class="edge">
<title>Node2&#45;&gt;Node6</title>
<path fill="none" stroke="#63b8ff" d="M138.96,-219.98C122.77,-211.57 97.78,-198.59 78.97,-188.81"/>
<polygon fill="#63b8ff" stroke="#63b8ff" points="80.52,-185.68 70.04,-184.17 77.3,-191.89 80.52,-185.68"/>
</g>
<!-- Node6&#45;&gt;Node4 -->
<g id="edge6" class="edge">
<title>Node6&#45;&gt;Node4</title>
<path fill="none" stroke="#63b8ff" d="M62.83,-164.98C71.55,-157.15 84.69,-145.34 95.25,-135.86"/>
<polygon fill="#63b8ff" stroke="#63b8ff" points="97.6,-138.46 102.7,-129.17 92.92,-133.25 97.6,-138.46"/>
</g>
<!-- Node6&#45;&gt;Node5 -->
<g id="edge7" class="edge">
<title>Node6&#45;&gt;Node5</title>
<path fill="none" stroke="#63b8ff" d="M50.54,-164.75C48.29,-157.72 45.05,-147.62 42.23,-138.84"/>
<polygon fill="#63b8ff" stroke="#63b8ff" points="45.49,-137.54 39.1,-129.09 38.83,-139.68 45.49,-137.54"/>
</g>
<!-- Node6&#45;&gt;Node6 -->
<g id="edge8" class="edge">
<title>Node6&#45;&gt;Node6</title>
<path fill="none" stroke="#63b8ff" d="M80.5,-184.03C96.43,-186.06 111.35,-182.88 111.35,-174.5 111.35,-167.95 102.25,-164.58 90.66,-164.38"/>
<polygon fill="#63b8ff" stroke="#63b8ff" points="90.28,-160.9 80.5,-164.97 90.68,-167.89 90.28,-160.9"/>
</g>
<!-- Node7&#45;&gt;Node4 -->
<g id="edge17" class="edge">
<title>Node7&#45;&gt;Node4</title>
<path fill="none" stroke="#63b8ff" d="M243.29,-164.98C217.32,-156.16 176.54,-142.31 147.39,-132.41"/>
<polygon fill="#63b8ff" stroke="#63b8ff" points="148.2,-128.99 137.61,-129.08 145.95,-135.61 148.2,-128.99"/>
</g>
<!-- Node7&#45;&gt;Node5 -->
<g id="edge18" class="edge">
<title>Node7&#45;&gt;Node5</title>
<path fill="none" stroke="#63b8ff" d="M237.1,-166.49C200.29,-158.22 137.04,-143.94 72.95,-129.12"/>
<polygon fill="#63b8ff" stroke="#63b8ff" points="73.61,-125.68 63.08,-126.84 72.03,-132.5 73.61,-125.68"/>
</g>
<!-- Node8 -->
<g id="node8" class="node">
<title>Node8</title>
<g id="a_node8"><a xlink:href="usb__config_8h.html" target="_top" xlink:title=" ">
<polygon fill="white" stroke="#666666" points="238.85,-129 161.85,-129 161.85,-110 238.85,-110 238.85,-129"/>
<text text-anchor="middle" x="200.35" y="-117" font-family="Helvetica,sans-Serif" font-size="10.00">usb_config.h</text>
</a>
</g>
</g>
<!-- Node7&#45;&gt;Node8 -->
<g id="edge10" class="edge">
<title>Node7&#45;&gt;Node8</title>
<path fill="none" stroke="#63b8ff" d="M257.42,-164.98C247.27,-157.07 231.93,-145.11 219.7,-135.58"/>
<polygon fill="#63b8ff" stroke="#63b8ff" points="221.51,-132.56 211.47,-129.17 217.21,-138.08 221.51,-132.56"/>
</g>
<!-- Node13 -->
<g id="node13" class="node">
<title>Node13</title>
<g id="a_node13"><a xlink:title=" ">
<polygon fill="#e0e0e0" stroke="#999999" points="313.35,-129 257.35,-129 257.35,-110 313.35,-110 313.35,-129"/>
<text text-anchor="middle" x="285.35" y="-117" font-family="Helvetica,sans-Serif" font-size="10.00">assert.h</text>
</a>
</g>
</g>
<!-- Node7&#45;&gt;Node13 -->
<g id="edge16" class="edge">
<title>Node7&#45;&gt;Node13</title>
<path fill="none" stroke="#63b8ff" d="M271.16,-164.75C273.41,-157.72 276.65,-147.62 279.47,-138.84"/>
<polygon fill="#63b8ff" stroke="#63b8ff" points="282.87,-139.68 282.59,-129.09 276.21,-137.54 282.87,-139.68"/>
</g>
<!-- Node14 -->
<g id="node14" class="node">
<title>Node14</title>
<g id="a_node14"><a xlink:title=" ">
<polygon fill="#e0e0e0" stroke="#999999" points="384.85,-129 331.85,-129 331.85,-110 384.85,-110 384.85,-129"/>
<text text-anchor="middle" x="358.35" y="-117" font-family="Helvetica,sans-Serif" font-size="10.00">string.h</text>
</a>
</g>
</g>
<!-- Node7&#45;&gt;Node14 -->
<g id="edge19" class="edge">
<title>Node7&#45;&gt;Node14</title>
<path fill="none" stroke="#63b8ff" d="M282.81,-164.98C296.77,-156.77 318.14,-144.18 334.6,-134.49"/>
<polygon fill="#63b8ff" stroke="#63b8ff" points="336.79,-137.26 343.63,-129.17 333.23,-131.23 336.79,-137.26"/>
</g>
<!-- Node9 -->
<g id="node9" class="node">
<title>Node9</title>
<g id="a_node9"><a xlink:title=" ">
<polygon fill="#e0e0e0" stroke="#999999" points="136.85,-74 61.85,-74 61.85,-55 136.85,-55 136.85,-74"/>
<text text-anchor="middle" x="99.35" y="-62" font-family="Helvetica,sans-Serif" font-size="10.00">usbd_core.h</text>
</a>
</g>
</g>
<!-- Node8&#45;&gt;Node9 -->
<g id="edge11" class="edge">
<title>Node8&#45;&gt;Node9</title>
<path fill="none" stroke="#63b8ff" d="M184.12,-109.98C168.17,-101.61 143.57,-88.7 124.97,-78.95"/>
<polygon fill="#63b8ff" stroke="#63b8ff" points="126.35,-75.72 115.87,-74.17 123.1,-81.92 126.35,-75.72"/>
</g>
<!-- Node10 -->
<g id="node10" class="node">
<title>Node10</title>
<g id="a_node10"><a xlink:title=" ">
<polygon fill="#e0e0e0" stroke="#999999" points="234.85,-19 163.85,-19 163.85,0 234.85,0 234.85,-19"/>
<text text-anchor="middle" x="199.35" y="-7" font-family="Helvetica,sans-Serif" font-size="10.00">usbd_cdc.h</text>
</a>
</g>
</g>
<!-- Node8&#45;&gt;Node10 -->
<g id="edge12" class="edge">
<title>Node8&#45;&gt;Node10</title>
<path fill="none" stroke="#63b8ff" d="M196.24,-109.88C192.29,-101.09 186.61,-86.94 184.35,-74 181.64,-58.48 186.3,-41.09 191.13,-28.43"/>
<polygon fill="#63b8ff" stroke="#63b8ff" points="194.42,-29.64 195.06,-19.06 187.96,-26.93 194.42,-29.64"/>
</g>
<!-- Node11 -->
<g id="node11" class="node">
<title>Node11</title>
<g id="a_node11"><a xlink:href="usbd__cdc__if_8h.html" target="_top" xlink:title=" ">
<polygon fill="white" stroke="#666666" points="275.35,-74 193.35,-74 193.35,-55 275.35,-55 275.35,-74"/>
<text text-anchor="middle" x="234.35" y="-62" font-family="Helvetica,sans-Serif" font-size="10.00">usbd_cdc_if.h</text>
</a>
</g>
</g>
<!-- Node8&#45;&gt;Node11 -->
<g id="edge13" class="edge">
<title>Node8&#45;&gt;Node11</title>
<path fill="none" stroke="#63b8ff" d="M205.96,-109.75C210.67,-102.42 217.52,-91.73 223.32,-82.7"/>
<polygon fill="#63b8ff" stroke="#63b8ff" points="226.39,-84.4 228.84,-74.09 220.49,-80.62 226.39,-84.4"/>
</g>
<!-- Node12 -->
<g id="node12" class="node">
<title>Node12</title>
<g id="a_node12"><a xlink:title=" ">
<polygon fill="#e0e0e0" stroke="#999999" points="370.85,-74 293.85,-74 293.85,-55 370.85,-55 370.85,-74"/>
<text text-anchor="middle" x="332.35" y="-62" font-family="Helvetica,sans-Serif" font-size="10.00">usbd_desc.h</text>
</a>
</g>
</g>
<!-- Node8&#45;&gt;Node12 -->
<g id="edge15" class="edge">
<title>Node8&#45;&gt;Node12</title>
<path fill="none" stroke="#63b8ff" d="M221.56,-109.98C243.08,-101.34 276.63,-87.87 301.18,-78.02"/>
<polygon fill="#63b8ff" stroke="#63b8ff" points="302.78,-81.14 310.76,-74.17 300.17,-74.65 302.78,-81.14"/>
</g>
<!-- Node11&#45;&gt;Node10 -->
<g id="edge14" class="edge">
<title>Node11&#45;&gt;Node10</title>
<path fill="none" stroke="#63b8ff" d="M228.57,-54.75C223.73,-47.42 216.67,-36.73 210.7,-27.7"/>
<polygon fill="#63b8ff" stroke="#63b8ff" points="213.45,-25.5 205.02,-19.09 207.61,-29.36 213.45,-25.5"/>
</g>
<!-- Node16 -->
<g id="node16" class="node">
<title>Node16</title>
<g id="a_node16"><a xlink:href="main_8h.html" target="_top" xlink:title=": Header for main.c file.">
<polygon fill="white" stroke="#666666" points="1297.35,-184 1247.35,-184 1247.35,-165 1297.35,-165 1297.35,-184"/>
<text text-anchor="middle" x="1272.35" y="-172" font-family="Helvetica,sans-Serif" font-size="10.00">main.h</text>
</a>
</g>
</g>
<!-- Node15&#45;&gt;Node16 -->
<g id="edge21" class="edge">
<title>Node15&#45;&gt;Node16</title>
<path fill="none" stroke="#63b8ff" d="M805.66,-226.29C880.53,-218.14 1141.71,-189.72 1237.12,-179.33"/>
<polygon fill="#63b8ff" stroke="#63b8ff" points="1237.56,-182.81 1247.13,-178.24 1236.81,-175.85 1237.56,-182.81"/>
</g>
<!-- Node17 -->
<g id="node17" class="node">
<title>Node17</title>
<g id="a_node17"><a xlink:title=" ">
<polygon fill="#e0e0e0" stroke="#999999" points="2143.85,-129 2042.85,-129 2042.85,-110 2143.85,-110 2143.85,-129"/>
<text text-anchor="middle" x="2093.35" y="-117" font-family="Helvetica,sans-Serif" font-size="10.00">stm32h5xx_hal.h</text>
</a>
</g>
</g>
<!-- Node16&#45;&gt;Node17 -->
<g id="edge22" class="edge">
<title>Node16&#45;&gt;Node17</title>
<path fill="none" stroke="#63b8ff" d="M1297.41,-172.81C1392.16,-170.03 1737.73,-158.44 2032.51,-129.11"/>
<polygon fill="#63b8ff" stroke="#63b8ff" points="2032.93,-132.58 2042.53,-128.1 2032.23,-125.62 2032.93,-132.58"/>
</g>
<!-- Node18 -->
<g id="node18" class="node">
<title>Node18</title>
<g id="a_node18"><a xlink:title=" ">
<polygon fill="#e0e0e0" stroke="#999999" points="517.35,-129 403.35,-129 403.35,-110 517.35,-110 517.35,-129"/>
<text text-anchor="middle" x="460.35" y="-117" font-family="Helvetica,sans-Serif" font-size="10.00">stm32h5xx_ll_bus.h</text>
</a>
</g>
</g>
<!-- Node16&#45;&gt;Node18 -->
<g id="edge23" class="edge">
<title>Node16&#45;&gt;Node18</title>
<path fill="none" stroke="#63b8ff" d="M1247.19,-172.62C1153.6,-169.24 816.62,-155.88 527.81,-129.07"/>
<polygon fill="#63b8ff" stroke="#63b8ff" points="527.84,-125.56 517.56,-128.11 527.19,-132.53 527.84,-125.56"/>
</g>
<!-- Node19 -->
<g id="node19" class="node">
<title>Node19</title>
<g id="a_node19"><a xlink:title=" ">
<polygon fill="#e0e0e0" stroke="#999999" points="663.35,-129 535.35,-129 535.35,-110 663.35,-110 663.35,-129"/>
<text text-anchor="middle" x="599.35" y="-117" font-family="Helvetica,sans-Serif" font-size="10.00">stm32h5xx_ll_cortex.h</text>
</a>
</g>
</g>
<!-- Node16&#45;&gt;Node19 -->
<g id="edge24" class="edge">
<title>Node16&#45;&gt;Node19</title>
<path fill="none" stroke="#63b8ff" d="M1247.17,-172.01C1165.85,-167.12 902.73,-150.69 673.62,-129.08"/>
<polygon fill="#63b8ff" stroke="#63b8ff" points="673.71,-125.57 663.43,-128.11 673.05,-132.54 673.71,-125.57"/>
</g>
<!-- Node20 -->
<g id="node20" class="node">
<title>Node20</title>
<g id="a_node20"><a xlink:title=" ">
<polygon fill="#e0e0e0" stroke="#999999" points="792.85,-129 681.85,-129 681.85,-110 792.85,-110 792.85,-129"/>
<text text-anchor="middle" x="737.35" y="-117" font-family="Helvetica,sans-Serif" font-size="10.00">stm32h5xx_ll_crc.h</text>
</a>
</g>
</g>
<!-- Node16&#45;&gt;Node20 -->
<g id="edge25" class="edge">
<title>Node16&#45;&gt;Node20</title>
<path fill="none" stroke="#63b8ff" d="M1247.3,-171.47C1178.23,-165.8 979.08,-148.97 803.14,-129.17"/>
<polygon fill="#63b8ff" stroke="#63b8ff" points="803.51,-125.69 793.18,-128.04 802.72,-132.64 803.51,-125.69"/>
</g>
<!-- Node21 -->
<g id="node21" class="node">
<title>Node21</title>
<g id="a_node21"><a xlink:title=" ">
<polygon fill="#e0e0e0" stroke="#999999" points="929.85,-129 810.85,-129 810.85,-110 929.85,-110 929.85,-129"/>
<text text-anchor="middle" x="870.35" y="-117" font-family="Helvetica,sans-Serif" font-size="10.00">stm32h5xx_ll_dma.h</text>
</a>
</g>
</g>
<!-- Node16&#45;&gt;Node21 -->
<g id="edge26" class="edge">
<title>Node16&#45;&gt;Node21</title>
<path fill="none" stroke="#63b8ff" d="M1247.2,-170.18C1186.73,-162.21 1031.43,-141.74 940.17,-129.71"/>
<polygon fill="#63b8ff" stroke="#63b8ff" points="940.56,-126.23 930.19,-128.39 939.65,-133.17 940.56,-126.23"/>
</g>
<!-- Node22 -->
<g id="node22" class="node">
<title>Node22</title>
<g id="a_node22"><a xlink:title=" ">
<polygon fill="#e0e0e0" stroke="#999999" points="1066.35,-129 948.35,-129 948.35,-110 1066.35,-110 1066.35,-129"/>
<text text-anchor="middle" x="1007.35" y="-117" font-family="Helvetica,sans-Serif" font-size="10.00">stm32h5xx_ll_gpio.h</text>
</a>
</g>
</g>
<!-- Node16&#45;&gt;Node22 -->
<g id="edge27" class="edge">
<title>Node16&#45;&gt;Node22</title>
<path fill="none" stroke="#63b8ff" d="M1246.94,-168.42C1204.05,-159.84 1116.42,-142.32 1059.87,-131"/>
<polygon fill="#63b8ff" stroke="#63b8ff" points="1060.53,-127.57 1050.03,-129.04 1059.15,-134.43 1060.53,-127.57"/>
</g>
<!-- Node23 -->
<g id="node23" class="node">
<title>Node23</title>
<g id="a_node23"><a xlink:title=" ">
<polygon fill="#e0e0e0" stroke="#999999" points="1198.35,-129 1084.35,-129 1084.35,-110 1198.35,-110 1198.35,-129"/>
<text text-anchor="middle" x="1141.35" y="-117" font-family="Helvetica,sans-Serif" font-size="10.00">stm32h5xx_ll_pwr.h</text>
</a>
</g>
</g>
<!-- Node16&#45;&gt;Node23 -->
<g id="edge28" class="edge">
<title>Node16&#45;&gt;Node23</title>
<path fill="none" stroke="#63b8ff" d="M1251.3,-164.98C1229.94,-156.34 1196.64,-142.87 1172.28,-133.02"/>
<polygon fill="#63b8ff" stroke="#63b8ff" points="1173.36,-129.68 1162.78,-129.17 1170.74,-136.17 1173.36,-129.68"/>
</g>
<!-- Node24 -->
<g id="node24" class="node">
<title>Node24</title>
<g id="a_node24"><a xlink:title=" ">
<polygon fill="#e0e0e0" stroke="#999999" points="1327.85,-129 1216.85,-129 1216.85,-110 1327.85,-110 1327.85,-129"/>
<text text-anchor="middle" x="1272.35" y="-117" font-family="Helvetica,sans-Serif" font-size="10.00">stm32h5xx_ll_rcc.h</text>
</a>
</g>
</g>
<!-- Node16&#45;&gt;Node24 -->
<g id="edge29" class="edge">
<title>Node16&#45;&gt;Node24</title>
<path fill="none" stroke="#63b8ff" d="M1272.35,-164.75C1272.35,-157.8 1272.35,-147.85 1272.35,-139.13"/>
<polygon fill="#63b8ff" stroke="#63b8ff" points="1275.85,-139.09 1272.35,-129.09 1268.85,-139.09 1275.85,-139.09"/>
</g>
<!-- Node25 -->
<g id="node25" class="node">
<title>Node25</title>
<g id="a_node25"><a xlink:title=" ">
<polygon fill="#e0e0e0" stroke="#999999" points="1478.85,-129 1345.85,-129 1345.85,-110 1478.85,-110 1478.85,-129"/>
<text text-anchor="middle" x="1412.35" y="-117" font-family="Helvetica,sans-Serif" font-size="10.00">stm32h5xx_ll_system.h</text>
</a>
</g>
</g>
<!-- Node16&#45;&gt;Node25 -->
<g id="edge30" class="edge">
<title>Node16&#45;&gt;Node25</title>
<path fill="none" stroke="#63b8ff" d="M1294.84,-164.98C1317.87,-156.27 1353.89,-142.63 1379.98,-132.75"/>
<polygon fill="#63b8ff" stroke="#63b8ff" points="1381.33,-135.98 1389.45,-129.17 1378.86,-129.44 1381.33,-135.98"/>
</g>
<!-- Node26 -->
<g id="node26" class="node">
<title>Node26</title>
<g id="a_node26"><a xlink:title=" ">
<polygon fill="#e0e0e0" stroke="#999999" points="1615.35,-129 1497.35,-129 1497.35,-110 1615.35,-110 1615.35,-129"/>
<text text-anchor="middle" x="1556.35" y="-117" font-family="Helvetica,sans-Serif" font-size="10.00">stm32h5xx_ll_utils.h</text>
</a>
</g>
</g>
<!-- Node16&#45;&gt;Node26 -->
<g id="edge31" class="edge">
<title>Node16&#45;&gt;Node26</title>
<path fill="none" stroke="#63b8ff" d="M1297.55,-168.8C1342.88,-160.34 1439.16,-142.37 1500.65,-130.89"/>
<polygon fill="#63b8ff" stroke="#63b8ff" points="1501.4,-134.32 1510.58,-129.04 1500.11,-127.43 1501.4,-134.32"/>
</g>
<!-- Node27 -->
<g id="node27" class="node">
<title>Node27</title>
<g id="a_node27"><a xlink:title=" ">
<polygon fill="#e0e0e0" stroke="#999999" points="1749.35,-129 1633.35,-129 1633.35,-110 1749.35,-110 1749.35,-129"/>
<text text-anchor="middle" x="1691.35" y="-117" font-family="Helvetica,sans-Serif" font-size="10.00">stm32h5xx_ll_exti.h</text>
</a>
</g>
</g>
<!-- Node16&#45;&gt;Node27 -->
<g id="edge32" class="edge">
<title>Node16&#45;&gt;Node27</title>
<path fill="none" stroke="#63b8ff" d="M1297.53,-170.32C1353.84,-163.21 1494.44,-145.45 1623.21,-129.14"/>
<polygon fill="#63b8ff" stroke="#63b8ff" points="1623.76,-132.6 1633.25,-127.87 1622.88,-125.66 1623.76,-132.6"/>
</g>
<!-- Node28 -->
<g id="node28" class="node">
<title>Node28</title>
<g id="a_node28"><a xlink:title=" ">
<polygon fill="#e0e0e0" stroke="#999999" points="1839.35,-129 1767.35,-129 1767.35,-110 1839.35,-110 1839.35,-129"/>
<text text-anchor="middle" x="1803.35" y="-117" font-family="Helvetica,sans-Serif" font-size="10.00">FreeRTOS.h</text>
</a>
</g>
</g>
<!-- Node16&#45;&gt;Node28 -->
<g id="edge33" class="edge">
<title>Node16&#45;&gt;Node28</title>
<path fill="none" stroke="#63b8ff" d="M1297.49,-172.05C1368.22,-167.78 1575.11,-154.07 1757.03,-129.06"/>
<polygon fill="#63b8ff" stroke="#63b8ff" points="1757.63,-132.51 1767.05,-127.66 1756.66,-125.57 1757.63,-132.51"/>
</g>
<!-- Node29 -->
<g id="node29" class="node">
<title>Node29</title>
<g id="a_node29"><a xlink:title=" ">
<polygon fill="#e0e0e0" stroke="#999999" points="1913.35,-129 1857.35,-129 1857.35,-110 1913.35,-110 1913.35,-129"/>
<text text-anchor="middle" x="1885.35" y="-117" font-family="Helvetica,sans-Serif" font-size="10.00">queue.h</text>
</a>
</g>
</g>
<!-- Node16&#45;&gt;Node29 -->
<g id="edge34" class="edge">
<title>Node16&#45;&gt;Node29</title>
<path fill="none" stroke="#63b8ff" d="M1297.48,-172.89C1376.83,-170.69 1629.12,-161.55 1847.12,-128.95"/>
<polygon fill="#63b8ff" stroke="#63b8ff" points="1847.79,-132.39 1857.15,-127.43 1846.74,-125.47 1847.79,-132.39"/>
</g>
<!-- Node30 -->
<g id="node30" class="node">
<title>Node30</title>
<g id="a_node30"><a xlink:title=" ">
<polygon fill="#e0e0e0" stroke="#999999" points="2024.85,-129 1931.85,-129 1931.85,-110 2024.85,-110 2024.85,-129"/>
<text text-anchor="middle" x="1978.35" y="-117" font-family="Helvetica,sans-Serif" font-size="10.00">stream_buffer.h</text>
</a>
</g>
</g>
<!-- Node16&#45;&gt;Node30 -->
<g id="edge35" class="edge">
<title>Node16&#45;&gt;Node30</title>
<path fill="none" stroke="#63b8ff" d="M1297.51,-172.52C1383.25,-169.04 1672.02,-156.02 1921.65,-128.98"/>
<polygon fill="#63b8ff" stroke="#63b8ff" points="1922.08,-132.45 1931.64,-127.88 1921.32,-125.49 1922.08,-132.45"/>
</g>
</g>
</svg>
