<?xml version="1.0" encoding="UTF-8" standalone="no"?>
<!DOCTYPE svg PUBLIC "-//W3C//DTD SVG 1.1//EN"
 "http://www.w3.org/Graphics/SVG/1.1/DTD/svg11.dtd">
<!-- Generated by graphviz version 2.43.0 (0)
 -->
<!-- Title: obc_mcb_frame_encode_inner Pages: 1 -->
<!--zoomable 140 -->
<svg id="main" version="1.1" xmlns="http://www.w3.org/2000/svg" xmlns:xlink="http://www.w3.org/1999/xlink" xml:space="preserve" onload="init(evt)">
<style type="text/css"><![CDATA[
.edge:hover path { stroke: red; }
.edge:hover polygon { stroke: red; fill: red; }
]]></style>
<script type="text/javascript"><![CDATA[
var edges = document.getElementsByTagName('g');
if (edges && edges.length) {
  for (var i=0;i<edges.length;i++) {
    if (edges[i].id.substr(0,4)=='edge') {
      edges[i].setAttribute('class','edge');
    }
  }
}
]]></script>
        <defs>
                <circle id="rim" cx="0" cy="0" r="7"/>
                <circle id="rim2" cx="0" cy="0" r="3.5"/>
                <g id="zoomPlus">
                        <use xlink:href="#rim" fill="#404040">
                                <set attributeName="fill" to="#808080" begin="zoomplus.mouseover" end="zoomplus.mouseout"/>
                        </use>
                        <path d="M-4,0h8M0,-4v8" fill="none" stroke="white" stroke-width="1.5" pointer-events="none"/>
                </g>
                <g id="zoomMin">
                        <use xlink:href="#rim" fill="#404040">
                                <set attributeName="fill" to="#808080" begin="zoomminus.mouseover" end="zoomminus.mouseout"/>
                        </use>
                        <path d="M-4,0h8" fill="none" stroke="white" stroke-width="1.5" pointer-events="none"/>
                </g>
                <g id="dirArrow">
                        <path fill="none" stroke="white" stroke-width="1.5" d="M0,-3.0v7 M-2.5,-0.5L0,-3.0L2.5,-0.5"/>
                </g>
               <g id="resetDef">
                       <use xlink:href="#rim2" fill="#404040">
                               <set attributeName="fill" to="#808080" begin="reset.mouseover" end="reset.mouseout"/>
                       </use>
               </g>
        </defs>

<script type="text/javascript">
var viewWidth = 1386;
var viewHeight = 140;
var sectionId = 'dynsection-34';
</script>
<script xlink:href="svgpan.js"/>
<svg id="graph" class="graph">
<g id="viewport">
<title>obc_mcb_frame_encode_inner</title>
<!-- Node1 -->
<g id="node1" class="node">
<title>Node1</title>
<g id="a_node1"><a xlink:title=" ">
<polygon fill="#999999" stroke="#666666" points="1378,-73 1243,-73 1243,-43 1378,-43 1378,-73"/>
<text text-anchor="start" x="1251" y="-61" font-family="Helvetica,sans-Serif" font-size="10.00">obc_mcb_frame_encode</text>
<text text-anchor="middle" x="1310.5" y="-50" font-family="Helvetica,sans-Serif" font-size="10.00">_inner</text>
</a>
</g>
</g>
<!-- Node2 -->
<g id="node2" class="node">
<title>Node2</title>
<g id="a_node2"><a xlink:href="lora_8c.html#ac7be2e87f2ead7003e3f53b9956e5323" target="_top" xlink:title=" ">
<polygon fill="white" stroke="#666666" points="1207,-116 1069,-116 1069,-86 1207,-86 1207,-116"/>
<text text-anchor="start" x="1077" y="-104" font-family="Helvetica,sans-Serif" font-size="10.00">obc_lo_ra_frame_encode</text>
<text text-anchor="middle" x="1138" y="-93" font-family="Helvetica,sans-Serif" font-size="10.00">_inner</text>
</a>
</g>
</g>
<!-- Node1&#45;&gt;Node2 -->
<g id="edge1" class="edge">
<title>Node1&#45;&gt;Node2</title>
<path fill="none" stroke="#63b8ff" d="M1239.99,-75.53C1226.26,-78.99 1211.97,-82.6 1198.6,-85.97"/>
<polygon fill="#63b8ff" stroke="#63b8ff" points="1241.03,-78.88 1249.87,-73.04 1239.32,-72.09 1241.03,-78.88"/>
</g>
<!-- Node11 -->
<g id="node11" class="node">
<title>Node11</title>
<g id="a_node11"><a xlink:href="lora_8c.html#ac455701bb678561597410e84fedc8c3c" target="_top" xlink:title=" ">
<polygon fill="white" stroke="#666666" points="1205.5,-67.5 1070.5,-67.5 1070.5,-48.5 1205.5,-48.5 1205.5,-67.5"/>
<text text-anchor="middle" x="1138" y="-55.5" font-family="Helvetica,sans-Serif" font-size="10.00">obc_mcb_frame_encode</text>
</a>
</g>
</g>
<!-- Node1&#45;&gt;Node11 -->
<g id="edge10" class="edge">
<title>Node1&#45;&gt;Node11</title>
<path fill="none" stroke="#63b8ff" d="M1232.56,-58C1223.6,-58 1214.51,-58 1205.7,-58"/>
<polygon fill="#63b8ff" stroke="#63b8ff" points="1232.6,-61.5 1242.6,-58 1232.6,-54.5 1232.6,-61.5"/>
</g>
<!-- Node12 -->
<g id="node12" class="node">
<title>Node12</title>
<g id="a_node12"><a xlink:href="lora_8c.html#a261a1309dabea3dc51199cb964c10d3e" target="_top" xlink:title=" ">
<polygon fill="white" stroke="#666666" points="1205.5,-30 1070.5,-30 1070.5,0 1205.5,0 1205.5,-30"/>
<text text-anchor="start" x="1078.5" y="-18" font-family="Helvetica,sans-Serif" font-size="10.00">obc_mcb_frame_encode</text>
<text text-anchor="middle" x="1138" y="-7" font-family="Helvetica,sans-Serif" font-size="10.00">_repeated_inner</text>
</a>
</g>
</g>
<!-- Node1&#45;&gt;Node12 -->
<g id="edge11" class="edge">
<title>Node1&#45;&gt;Node12</title>
<path fill="none" stroke="#63b8ff" d="M1239.99,-40.47C1226.26,-37.01 1211.97,-33.4 1198.6,-30.03"/>
<polygon fill="#63b8ff" stroke="#63b8ff" points="1239.32,-43.91 1249.87,-42.96 1241.03,-37.12 1239.32,-43.91"/>
</g>
<!-- Node3 -->
<g id="node3" class="node">
<title>Node3</title>
<g id="a_node3"><a xlink:href="lora_8c.html#a153c62304adcd257479820c3a6e449bb" target="_top" xlink:title=" ">
<polygon fill="white" stroke="#666666" points="1033,-131.5 895,-131.5 895,-112.5 1033,-112.5 1033,-131.5"/>
<text text-anchor="middle" x="964" y="-119.5" font-family="Helvetica,sans-Serif" font-size="10.00">obc_lo_ra_frame_encode</text>
</a>
</g>
</g>
<!-- Node2&#45;&gt;Node3 -->
<g id="edge2" class="edge">
<title>Node2&#45;&gt;Node3</title>
<path fill="none" stroke="#63b8ff" d="M1058.36,-110.6C1049.97,-111.63 1041.49,-112.66 1033.24,-113.67"/>
<polygon fill="#63b8ff" stroke="#63b8ff" points="1059.02,-114.05 1068.53,-109.36 1058.18,-107.1 1059.02,-114.05"/>
</g>
<!-- Node10 -->
<g id="node10" class="node">
<title>Node10</title>
<g id="a_node10"><a xlink:href="lora_8c.html#ae8dcb8d70ae241b6e4e27231f727fd12" target="_top" xlink:title=" ">
<polygon fill="white" stroke="#666666" points="1033,-94 895,-94 895,-64 1033,-64 1033,-94"/>
<text text-anchor="start" x="903" y="-82" font-family="Helvetica,sans-Serif" font-size="10.00">obc_lo_ra_frame_encode</text>
<text text-anchor="middle" x="964" y="-71" font-family="Helvetica,sans-Serif" font-size="10.00">_repeated_inner</text>
</a>
</g>
</g>
<!-- Node2&#45;&gt;Node10 -->
<g id="edge9" class="edge">
<title>Node2&#45;&gt;Node10</title>
<path fill="none" stroke="#63b8ff" d="M1058.36,-90.94C1049.97,-89.87 1041.49,-88.78 1033.24,-87.73"/>
<polygon fill="#63b8ff" stroke="#63b8ff" points="1058.16,-94.44 1068.53,-92.24 1059.05,-87.5 1058.16,-94.44"/>
</g>
<!-- Node4 -->
<g id="node4" class="node">
<title>Node4</title>
<g id="a_node4"><a xlink:href="lora__frame_8c.html#a17239a709e6511cce2fa83ceaf2ab240" target="_top" xlink:title=" ">
<polygon fill="white" stroke="#666666" points="859,-131.5 704,-131.5 704,-112.5 859,-112.5 859,-131.5"/>
<text text-anchor="middle" x="781.5" y="-119.5" font-family="Helvetica,sans-Serif" font-size="10.00">lora_frame_encode_appcmd</text>
</a>
</g>
</g>
<!-- Node3&#45;&gt;Node4 -->
<g id="edge3" class="edge">
<title>Node3&#45;&gt;Node4</title>
<path fill="none" stroke="#63b8ff" d="M884.61,-122C876.21,-122 867.68,-122 859.3,-122"/>
<polygon fill="#63b8ff" stroke="#63b8ff" points="884.76,-125.5 894.76,-122 884.76,-118.5 884.76,-125.5"/>
</g>
<!-- Node5 -->
<g id="node5" class="node">
<title>Node5</title>
<g id="a_node5"><a xlink:href="lora__frame_8c.html#a9a22325897386515e6fac7e43893a859" target="_top" xlink:title=" ">
<polygon fill="white" stroke="#666666" points="668,-131.5 541,-131.5 541,-112.5 668,-112.5 668,-131.5"/>
<text text-anchor="middle" x="604.5" y="-119.5" font-family="Helvetica,sans-Serif" font-size="10.00">lora_frame_build_sync</text>
</a>
</g>
</g>
<!-- Node4&#45;&gt;Node5 -->
<g id="edge4" class="edge">
<title>Node4&#45;&gt;Node5</title>
<path fill="none" stroke="#63b8ff" d="M693.86,-122C685.21,-122 676.54,-122 668.2,-122"/>
<polygon fill="#63b8ff" stroke="#63b8ff" points="694,-125.5 704,-122 694,-118.5 694,-125.5"/>
</g>
<!-- Node6 -->
<g id="node6" class="node">
<title>Node6</title>
<g id="a_node6"><a xlink:href="gs__scheduler_8c.html#a815b48fae98b1fdf545b4693a720cca3" target="_top" xlink:title=" ">
<polygon fill="white" stroke="#666666" points="505,-131.5 425,-131.5 425,-112.5 505,-112.5 505,-131.5"/>
<text text-anchor="middle" x="465" y="-119.5" font-family="Helvetica,sans-Serif" font-size="10.00">gs_run_cycle</text>
</a>
</g>
</g>
<!-- Node5&#45;&gt;Node6 -->
<g id="edge5" class="edge">
<title>Node5&#45;&gt;Node6</title>
<path fill="none" stroke="#63b8ff" d="M530.77,-122C521.9,-122 513.12,-122 505.02,-122"/>
<polygon fill="#63b8ff" stroke="#63b8ff" points="530.79,-125.5 540.79,-122 530.79,-118.5 530.79,-125.5"/>
</g>
<!-- Node7 -->
<g id="node7" class="node">
<title>Node7</title>
<g id="a_node7"><a xlink:href="rfm95w__task_8c.html#af8b08547037ee5614a6b8e7f8bc00b23" target="_top" xlink:title=" ">
<polygon fill="white" stroke="#666666" points="389,-131.5 288,-131.5 288,-112.5 389,-112.5 389,-131.5"/>
<text text-anchor="middle" x="338.5" y="-119.5" font-family="Helvetica,sans-Serif" font-size="10.00">rfm95wTaskEntry</text>
</a>
</g>
</g>
<!-- Node6&#45;&gt;Node7 -->
<g id="edge6" class="edge">
<title>Node6&#45;&gt;Node7</title>
<path fill="none" stroke="#63b8ff" d="M414.93,-122C406.54,-122 397.81,-122 389.4,-122"/>
<polygon fill="#63b8ff" stroke="#63b8ff" points="414.95,-125.5 424.95,-122 414.95,-118.5 414.95,-125.5"/>
</g>
<!-- Node8 -->
<g id="node8" class="node">
<title>Node8</title>
<g id="a_node8"><a xlink:href="rfm95w__task_8c.html#a5766e691677be755740c5d264c637139" target="_top" xlink:title=" ">
<polygon fill="white" stroke="#666666" points="252,-131.5 145,-131.5 145,-112.5 252,-112.5 252,-131.5"/>
<text text-anchor="middle" x="198.5" y="-119.5" font-family="Helvetica,sans-Serif" font-size="10.00">RFM95W_task_init</text>
</a>
</g>
</g>
<!-- Node7&#45;&gt;Node8 -->
<g id="edge7" class="edge">
<title>Node7&#45;&gt;Node8</title>
<path fill="none" stroke="#63b8ff" d="M277.48,-122C269.01,-122 260.35,-122 252.04,-122"/>
<polygon fill="#63b8ff" stroke="#63b8ff" points="277.68,-125.5 287.68,-122 277.68,-118.5 277.68,-125.5"/>
</g>
<!-- Node9 -->
<g id="node9" class="node">
<title>Node9</title>
<g id="a_node9"><a xlink:href="app__freertos_8c.html#abade755e13d07c10889ae83143656158" target="_top" xlink:title="FreeRTOS initialization.">
<polygon fill="white" stroke="#666666" points="109,-131.5 0,-131.5 0,-112.5 109,-112.5 109,-131.5"/>
<text text-anchor="middle" x="54.5" y="-119.5" font-family="Helvetica,sans-Serif" font-size="10.00">MX_FREERTOS_Init</text>
</a>
</g>
</g>
<!-- Node8&#45;&gt;Node9 -->
<g id="edge8" class="edge">
<title>Node8&#45;&gt;Node9</title>
<path fill="none" stroke="#63b8ff" d="M134.5,-122C126.12,-122 117.58,-122 109.37,-122"/>
<polygon fill="#63b8ff" stroke="#63b8ff" points="134.62,-125.5 144.62,-122 134.62,-118.5 134.62,-125.5"/>
</g>
</g>
</svg>
        <g id="navigator" transform="translate(0 0)" fill="#404254">
                <rect fill="#f2f5e9" fill-opacity="0.5" stroke="#606060" stroke-width=".5" x="0" y="0" width="60" height="60"/>
                <use id="zoomplus" xlink:href="#zoomPlus" x="17" y="9" onmousedown="handleZoom(evt,'in')"/>
                <use id="zoomminus" xlink:href="#zoomMin" x="42" y="9" onmousedown="handleZoom(evt,'out')"/>
                <use id="reset" xlink:href="#resetDef" x="30" y="36" onmousedown="handleReset()"/>
                <g id="arrowUp" xlink:href="#dirArrow" transform="translate(30 24)" onmousedown="handlePan(0,-1)">
                  <use xlink:href="#rim" fill="#404040">
                        <set attributeName="fill" to="#808080" begin="arrowUp.mouseover" end="arrowUp.mouseout"/>
                  </use>
                  <path fill="none" stroke="white" stroke-width="1.5" d="M0,-3.0v7 M-2.5,-0.5L0,-3.0L2.5,-0.5"/>
                </g>
                <g id="arrowRight" xlink:href="#dirArrow" transform="rotate(90) translate(36 -43)" onmousedown="handlePan(1,0)">
                  <use xlink:href="#rim" fill="#404040">
                        <set attributeName="fill" to="#808080" begin="arrowRight.mouseover" end="arrowRight.mouseout"/>
                  </use>
                  <path fill="none" stroke="white" stroke-width="1.5" d="M0,-3.0v7 M-2.5,-0.5L0,-3.0L2.5,-0.5"/>
                </g>
                <g id="arrowDown" xlink:href="#dirArrow" transform="rotate(180) translate(-30 -48)" onmousedown="handlePan(0,1)">
                  <use xlink:href="#rim" fill="#404040">
                        <set attributeName="fill" to="#808080" begin="arrowDown.mouseover" end="arrowDown.mouseout"/>
                  </use>
                  <path fill="none" stroke="white" stroke-width="1.5" d="M0,-3.0v7 M-2.5,-0.5L0,-3.0L2.5,-0.5"/>
                </g>
                <g id="arrowLeft" xlink:href="#dirArrow" transform="rotate(270) translate(-36 17)" onmousedown="handlePan(-1,0)">
                  <use xlink:href="#rim" fill="#404040">
                        <set attributeName="fill" to="#808080" begin="arrowLeft.mouseover" end="arrowLeft.mouseout"/>
                  </use>
                  <path fill="none" stroke="white" stroke-width="1.5" d="M0,-3.0v7 M-2.5,-0.5L0,-3.0L2.5,-0.5"/>
                </g>
        </g>
        <svg viewBox="0 0 15 15" width="100%" height="30px" preserveAspectRatio="xMaxYMin meet">
         <g id="arrow_out" transform="scale(0.3 0.3)">
          <a xlink:href="lora_8c_aadfad1864ab4c2bab668ee2f6c5815f8_icgraph_org.svg" target="_base">
           <rect id="button" ry="5" rx="5" y="6" x="6" height="38" width="38"
                fill="#f2f5e9" fill-opacity="0.5" stroke="#606060" stroke-width="1.0"/>
           <path id="arrow"
             d="M 11.500037,31.436501 C 11.940474,20.09759 22.043105,11.32322 32.158766,21.979434 L 37.068811,17.246167 C 37.068811,17.246167 37.088388,32 37.088388,32 L 22.160133,31.978069 C 22.160133,31.978069 26.997745,27.140456 26.997745,27.140456 C 18.528582,18.264221 13.291696,25.230495 11.500037,31.436501 z"
             style="fill:#404040;"/>
          </a>
         </g>
        </svg>
</svg>
