<?xml version="1.0" encoding="UTF-8" standalone="no"?>
<!DOCTYPE svg PUBLIC "-//W3C//DTD SVG 1.1//EN"
 "http://www.w3.org/Graphics/SVG/1.1/DTD/svg11.dtd">
<!-- Generated by graphviz version 2.43.0 (0)
 -->
<!-- Title: Core/Inc/main.h Pages: 1 -->
<svg width="1749pt" height="82pt"
 viewBox="0.00 0.00 1749.00 82.00" xmlns="http://www.w3.org/2000/svg" xmlns:xlink="http://www.w3.org/1999/xlink">
<g id="graph0" class="graph" transform="scale(1 1) rotate(0) translate(4 78)">
<title>Core/Inc/main.h</title>
<!-- Node1 -->
<g id="node1" class="node">
<title>Node1</title>
<g id="a_node1"><a xlink:title=": Header for main.c file.">
<polygon fill="#999999" stroke="#666666" points="969,-74 876,-74 876,-55 969,-55 969,-74"/>
<text text-anchor="middle" x="922.5" y="-62" font-family="Helvetica,sans-Serif" font-size="10.00">Core/Inc/main.h</text>
</a>
</g>
</g>
<!-- Node2 -->
<g id="node2" class="node">
<title>Node2</title>
<g id="a_node2"><a xlink:title=" ">
<polygon fill="#e0e0e0" stroke="#999999" points="101,-19 0,-19 0,0 101,0 101,-19"/>
<text text-anchor="middle" x="50.5" y="-7" font-family="Helvetica,sans-Serif" font-size="10.00">stm32h5xx_hal.h</text>
</a>
</g>
</g>
<!-- Node1&#45;&gt;Node2 -->
<g id="edge1" class="edge">
<title>Node1&#45;&gt;Node2</title>
<path fill="none" stroke="#63b8ff" d="M875.71,-62.34C752.45,-58.99 408.49,-47.71 111.31,-18.98"/>
<polygon fill="#63b8ff" stroke="#63b8ff" points="111.49,-15.48 101.2,-18 110.82,-22.45 111.49,-15.48"/>
</g>
<!-- Node3 -->
<g id="node3" class="node">
<title>Node3</title>
<g id="a_node3"><a xlink:title=" ">
<polygon fill="#e0e0e0" stroke="#999999" points="233.5,-19 119.5,-19 119.5,0 233.5,0 233.5,-19"/>
<text text-anchor="middle" x="176.5" y="-7" font-family="Helvetica,sans-Serif" font-size="10.00">stm32h5xx_ll_bus.h</text>
</a>
</g>
</g>
<!-- Node1&#45;&gt;Node3 -->
<g id="edge2" class="edge">
<title>Node1&#45;&gt;Node3</title>
<path fill="none" stroke="#63b8ff" d="M875.84,-61.46C767.03,-56.48 487.84,-42.44 243.84,-19.07"/>
<polygon fill="#63b8ff" stroke="#63b8ff" points="244,-15.57 233.71,-18.09 243.33,-22.54 244,-15.57"/>
</g>
<!-- Node4 -->
<g id="node4" class="node">
<title>Node4</title>
<g id="a_node4"><a xlink:title=" ">
<polygon fill="#e0e0e0" stroke="#999999" points="379.5,-19 251.5,-19 251.5,0 379.5,0 379.5,-19"/>
<text text-anchor="middle" x="315.5" y="-7" font-family="Helvetica,sans-Serif" font-size="10.00">stm32h5xx_ll_cortex.h</text>
</a>
</g>
</g>
<!-- Node1&#45;&gt;Node4 -->
<g id="edge3" class="edge">
<title>Node1&#45;&gt;Node4</title>
<path fill="none" stroke="#63b8ff" d="M875.67,-60.12C784.34,-53.4 575.82,-37.53 389.56,-19.07"/>
<polygon fill="#63b8ff" stroke="#63b8ff" points="389.88,-15.59 379.58,-18.08 389.19,-22.56 389.88,-15.59"/>
</g>
<!-- Node5 -->
<g id="node5" class="node">
<title>Node5</title>
<g id="a_node5"><a xlink:title=" ">
<polygon fill="#e0e0e0" stroke="#999999" points="509,-19 398,-19 398,0 509,0 509,-19"/>
<text text-anchor="middle" x="453.5" y="-7" font-family="Helvetica,sans-Serif" font-size="10.00">stm32h5xx_ll_crc.h</text>
</a>
</g>
</g>
<!-- Node1&#45;&gt;Node5 -->
<g id="edge4" class="edge">
<title>Node1&#45;&gt;Node5</title>
<path fill="none" stroke="#63b8ff" d="M875.99,-58.74C802.49,-51.13 654.68,-35.53 519.46,-19.22"/>
<polygon fill="#63b8ff" stroke="#63b8ff" points="519.69,-15.72 509.34,-17.99 518.85,-22.67 519.69,-15.72"/>
</g>
<!-- Node6 -->
<g id="node6" class="node">
<title>Node6</title>
<g id="a_node6"><a xlink:title=" ">
<polygon fill="#e0e0e0" stroke="#999999" points="646,-19 527,-19 527,0 646,0 646,-19"/>
<text text-anchor="middle" x="586.5" y="-7" font-family="Helvetica,sans-Serif" font-size="10.00">stm32h5xx_ll_dma.h</text>
</a>
</g>
</g>
<!-- Node1&#45;&gt;Node6 -->
<g id="edge5" class="edge">
<title>Node1&#45;&gt;Node6</title>
<path fill="none" stroke="#63b8ff" d="M875.78,-56.13C817.24,-46.9 716.64,-31.03 650.85,-20.65"/>
<polygon fill="#63b8ff" stroke="#63b8ff" points="651.02,-17.13 640.6,-19.03 649.93,-24.05 651.02,-17.13"/>
</g>
<!-- Node7 -->
<g id="node7" class="node">
<title>Node7</title>
<g id="a_node7"><a xlink:title=" ">
<polygon fill="#e0e0e0" stroke="#999999" points="782.5,-19 664.5,-19 664.5,0 782.5,0 782.5,-19"/>
<text text-anchor="middle" x="723.5" y="-7" font-family="Helvetica,sans-Serif" font-size="10.00">stm32h5xx_ll_gpio.h</text>
</a>
</g>
</g>
<!-- Node1&#45;&gt;Node7 -->
<g id="edge6" class="edge">
<title>Node1&#45;&gt;Node7</title>
<path fill="none" stroke="#63b8ff" d="M890.53,-54.98C856.68,-45.97 803.1,-31.7 765.79,-21.76"/>
<polygon fill="#63b8ff" stroke="#63b8ff" points="766.29,-18.27 755.72,-19.08 764.49,-25.04 766.29,-18.27"/>
</g>
<!-- Node8 -->
<g id="node8" class="node">
<title>Node8</title>
<g id="a_node8"><a xlink:title=" ">
<polygon fill="#e0e0e0" stroke="#999999" points="914.5,-19 800.5,-19 800.5,0 914.5,0 914.5,-19"/>
<text text-anchor="middle" x="857.5" y="-7" font-family="Helvetica,sans-Serif" font-size="10.00">stm32h5xx_ll_pwr.h</text>
</a>
</g>
</g>
<!-- Node1&#45;&gt;Node8 -->
<g id="edge7" class="edge">
<title>Node1&#45;&gt;Node8</title>
<path fill="none" stroke="#63b8ff" d="M912.06,-54.98C902.35,-47.07 887.68,-35.11 876,-25.58"/>
<polygon fill="#63b8ff" stroke="#63b8ff" points="878.1,-22.78 868.13,-19.17 873.67,-28.2 878.1,-22.78"/>
</g>
<!-- Node9 -->
<g id="node9" class="node">
<title>Node9</title>
<g id="a_node9"><a xlink:title=" ">
<polygon fill="#e0e0e0" stroke="#999999" points="1044,-19 933,-19 933,0 1044,0 1044,-19"/>
<text text-anchor="middle" x="988.5" y="-7" font-family="Helvetica,sans-Serif" font-size="10.00">stm32h5xx_ll_rcc.h</text>
</a>
</g>
</g>
<!-- Node1&#45;&gt;Node9 -->
<g id="edge8" class="edge">
<title>Node1&#45;&gt;Node9</title>
<path fill="none" stroke="#63b8ff" d="M933.1,-54.98C942.96,-47.07 957.85,-35.11 969.72,-25.58"/>
<polygon fill="#63b8ff" stroke="#63b8ff" points="972.1,-28.16 977.7,-19.17 967.71,-22.7 972.1,-28.16"/>
</g>
<!-- Node10 -->
<g id="node10" class="node">
<title>Node10</title>
<g id="a_node10"><a xlink:title=" ">
<polygon fill="#e0e0e0" stroke="#999999" points="1195,-19 1062,-19 1062,0 1195,0 1195,-19"/>
<text text-anchor="middle" x="1128.5" y="-7" font-family="Helvetica,sans-Serif" font-size="10.00">stm32h5xx_ll_system.h</text>
</a>
</g>
</g>
<!-- Node1&#45;&gt;Node10 -->
<g id="edge9" class="edge">
<title>Node1&#45;&gt;Node10</title>
<path fill="none" stroke="#63b8ff" d="M955.6,-54.98C990.78,-45.93 1046.57,-31.58 1085.22,-21.64"/>
<polygon fill="#63b8ff" stroke="#63b8ff" points="1086.33,-24.96 1095.14,-19.08 1084.59,-18.18 1086.33,-24.96"/>
</g>
<!-- Node11 -->
<g id="node11" class="node">
<title>Node11</title>
<g id="a_node11"><a xlink:title=" ">
<polygon fill="#e0e0e0" stroke="#999999" points="1331.5,-19 1213.5,-19 1213.5,0 1331.5,0 1331.5,-19"/>
<text text-anchor="middle" x="1272.5" y="-7" font-family="Helvetica,sans-Serif" font-size="10.00">stm32h5xx_ll_utils.h</text>
</a>
</g>
</g>
<!-- Node1&#45;&gt;Node11 -->
<g id="edge10" class="edge">
<title>Node1&#45;&gt;Node11</title>
<path fill="none" stroke="#63b8ff" d="M969.34,-56.41C1030.24,-47.19 1136.97,-31.02 1206.17,-20.54"/>
<polygon fill="#63b8ff" stroke="#63b8ff" points="1206.74,-24 1216.1,-19.04 1205.69,-17.08 1206.74,-24"/>
</g>
<!-- Node12 -->
<g id="node12" class="node">
<title>Node12</title>
<g id="a_node12"><a xlink:title=" ">
<polygon fill="#e0e0e0" stroke="#999999" points="1465.5,-19 1349.5,-19 1349.5,0 1465.5,0 1465.5,-19"/>
<text text-anchor="middle" x="1407.5" y="-7" font-family="Helvetica,sans-Serif" font-size="10.00">stm32h5xx_ll_exti.h</text>
</a>
</g>
</g>
<!-- Node1&#45;&gt;Node12 -->
<g id="edge11" class="edge">
<title>Node1&#45;&gt;Node12</title>
<path fill="none" stroke="#63b8ff" d="M969.24,-58.83C1044.72,-51.23 1198.43,-35.47 1339.29,-19.12"/>
<polygon fill="#63b8ff" stroke="#63b8ff" points="1339.88,-22.58 1349.4,-17.94 1339.07,-15.62 1339.88,-22.58"/>
</g>
<!-- Node13 -->
<g id="node13" class="node">
<title>Node13</title>
<g id="a_node13"><a xlink:title=" ">
<polygon fill="#e0e0e0" stroke="#999999" points="1555.5,-19 1483.5,-19 1483.5,0 1555.5,0 1555.5,-19"/>
<text text-anchor="middle" x="1519.5" y="-7" font-family="Helvetica,sans-Serif" font-size="10.00">FreeRTOS.h</text>
</a>
</g>
</g>
<!-- Node1&#45;&gt;Node13 -->
<g id="edge12" class="edge">
<title>Node1&#45;&gt;Node13</title>
<path fill="none" stroke="#63b8ff" d="M969.2,-61.41C1062.9,-56.86 1280.6,-44.46 1473.18,-19.04"/>
<polygon fill="#63b8ff" stroke="#63b8ff" points="1473.76,-22.49 1483.2,-17.7 1472.83,-15.55 1473.76,-22.49"/>
</g>
<!-- Node14 -->
<g id="node14" class="node">
<title>Node14</title>
<g id="a_node14"><a xlink:title=" ">
<polygon fill="#e0e0e0" stroke="#999999" points="1629.5,-19 1573.5,-19 1573.5,0 1629.5,0 1629.5,-19"/>
<text text-anchor="middle" x="1601.5" y="-7" font-family="Helvetica,sans-Serif" font-size="10.00">queue.h</text>
</a>
</g>
</g>
<!-- Node1&#45;&gt;Node14 -->
<g id="edge13" class="edge">
<title>Node1&#45;&gt;Node14</title>
<path fill="none" stroke="#63b8ff" d="M969.09,-62.77C1073.73,-60.58 1335.38,-52.14 1563.17,-18.95"/>
<polygon fill="#63b8ff" stroke="#63b8ff" points="1563.92,-22.38 1573.3,-17.46 1562.9,-15.45 1563.92,-22.38"/>
</g>
<!-- Node15 -->
<g id="node15" class="node">
<title>Node15</title>
<g id="a_node15"><a xlink:title=" ">
<polygon fill="#e0e0e0" stroke="#999999" points="1741,-19 1648,-19 1648,0 1741,0 1741,-19"/>
<text text-anchor="middle" x="1694.5" y="-7" font-family="Helvetica,sans-Serif" font-size="10.00">stream_buffer.h</text>
</a>
</g>
</g>
<!-- Node1&#45;&gt;Node15 -->
<g id="edge14" class="edge">
<title>Node1&#45;&gt;Node15</title>
<path fill="none" stroke="#63b8ff" d="M969.11,-62.03C1081.99,-58.17 1379.12,-46.18 1637.83,-18.96"/>
<polygon fill="#63b8ff" stroke="#63b8ff" points="1638.21,-22.44 1647.79,-17.91 1637.48,-15.48 1638.21,-22.44"/>
</g>
</g>
</svg>
