<?xml version="1.0" encoding="UTF-8" standalone="no"?>
<!DOCTYPE svg PUBLIC "-//W3C//DTD SVG 1.1//EN"
 "http://www.w3.org/Graphics/SVG/1.1/DTD/svg11.dtd">
<!-- Generated by graphviz version 2.43.0 (0)
 -->
<!-- Title: nvs_sync_log_mask Pages: 1 -->
<!--zoomable 138 -->

<svg id="main" version="1.1" xmlns="http://www.w3.org/2000/svg" xmlns:xlink="http://www.w3.org/1999/xlink" xml:space="preserve" onload="init(evt)">
<style type="text/css"><![CDATA[
.node, .edge {opacity: 0.7;}
.node.selected, .edge.selected {opacity: 1;}
.edge:hover path { stroke: red; }
.edge:hover polygon { stroke: red; fill: red; }
]]></style>

<defs>
  <circle id="rim" cx="0" cy="0" r="7"/>
  <circle id="rim2" cx="0" cy="0" r="3.5"/>
  <g id="zoomPlus">
    <use xlink:href="#rim" fill="#404040"><set attributeName="fill" to="#808080" begin="zoomplus.mouseover" end="zoomplus.mouseout"/></use>
    <path d="M-4,0h8M0,-4v8" fill="none" stroke="white" stroke-width="1.5" pointer-events="none"/>
  </g>
  <g id="zoomMin">
    <use xlink:href="#rim" fill="#404040"><set attributeName="fill" to="#808080" begin="zoomminus.mouseover" end="zoomminus.mouseout"/></use>
    <path d="M-4,0h8" fill="none" stroke="white" stroke-width="1.5" pointer-events="none"/>
  </g>
  <g id="arrowUp" transform="translate(30 24)">
    <use xlink:href="#rim"/>
    <path pointer-events="none" fill="none" stroke="white" stroke-width="1.5" d="M0,-3.0v7 M-2.5,-0.5L0,-3.0L2.5,-0.5"/>
  </g>
  <g id="arrowRight" transform="rotate(90) translate(36 -43)">
    <use xlink:href="#rim"/>
    <path pointer-events="none" fill="none" stroke="white" stroke-width="1.5" d="M0,-3.0v7 M-2.5,-0.5L0,-3.0L2.5,-0.5"/>
  </g>
  <g id="arrowDown" transform="rotate(180) translate(-30 -48)">
    <use xlink:href="#rim"/>
    <path pointer-events="none" fill="none" stroke="white" stroke-width="1.5" d="M0,-3.0v7 M-2.5,-0.5L0,-3.0L2.5,-0.5"/>
  </g>
  <g id="arrowLeft" transform="rotate(270) translate(-36 17)">
    <use xlink:href="#rim"/>
    <path pointer-events="none" fill="none" stroke="white" stroke-width="1.5" d="M0,-3.0v7 M-2.5,-0.5L0,-3.0L2.5,-0.5"/>
  </g>
  <g id="resetDef">
    <use xlink:href="#rim2" fill="#404040"><set attributeName="fill" to="#808080" begin="reset.mouseover" end="reset.mouseout"/></use>
  </g>
</defs>
<script type="application/ecmascript">
var viewWidth = 889;
var viewHeight = 138;
var sectionId = 'dynsection-12';
</script>
<script type="application/ecmascript" xlink:href="svg.min.js"/>
<svg id="graph" class="graph">
<g id="viewport">
<title>nvs_sync_log_mask</title>
<!-- Node1 -->
<g id="Node000001" class="node">
<title>Node1</title>
<g id="a_Node000001"><a xlink:title=" ">
<polygon fill="#999999" stroke="#666666" points="114,-47 0,-47 0,-28 114,-28 114,-47"/>
<text text-anchor="middle" x="57" y="-35" font-family="Helvetica,sans-Serif" font-size="10.00">nvs_sync_log_mask</text>
</a>
</g>
</g>
<!-- Node2 -->
<g id="Node000002" class="node">
<title>Node2</title>
<g id="a_Node000002"><a xlink:href="nvs__config_8c.html#aa9ef86be60e92cdb7220069d8653c66a" target="_top" xlink:title=" ">
<polygon fill="white" stroke="#666666" points="217,-47 150,-47 150,-28 217,-28 217,-47"/>
<text text-anchor="middle" x="183.5" y="-35" font-family="Helvetica,sans-Serif" font-size="10.00">NVS_Read</text>
</a>
</g>
</g>
<!-- Node1&#45;&gt;Node2 -->
<g id="edge1_Node000001_Node000002" class="edge">
<title>Node1&#45;&gt;Node2</title>
<g id="a_edge1_Node000001_Node000002"><a xlink:title=" ">
<path fill="none" stroke="#63b8ff" d="M114.06,-37.5C122.68,-37.5 131.46,-37.5 139.74,-37.5"/>
<polygon fill="#63b8ff" stroke="#63b8ff" points="139.89,-41 149.89,-37.5 139.89,-34 139.89,-41"/>
</a>
</g>
</g>
<!-- Node3 -->
<g id="Node000003" class="node">
<title>Node3</title>
<g id="a_Node000003"><a xlink:href="group__EEPROM__Exported__Functions.html#gadd96f1176b1503cfbc15074faa9375b2" target="_top" xlink:title="Returns the last stored variable data, if found, which correspond to the passed virtual address.">
<polygon fill="white" stroke="#666666" points="381,-47 253,-47 253,-28 381,-28 381,-47"/>
<text text-anchor="middle" x="317" y="-35" font-family="Helvetica,sans-Serif" font-size="10.00">EE_ReadVariable32bits</text>
</a>
</g>
</g>
<!-- Node2&#45;&gt;Node3 -->
<g id="edge2_Node000002_Node000003" class="edge">
<title>Node2&#45;&gt;Node3</title>
<g id="a_edge2_Node000002_Node000003"><a xlink:title=" ">
<path fill="none" stroke="#63b8ff" d="M217.01,-37.5C224.91,-37.5 233.68,-37.5 242.64,-37.5"/>
<polygon fill="#63b8ff" stroke="#63b8ff" points="242.81,-41 252.81,-37.5 242.81,-34 242.81,-41"/>
</a>
</g>
</g>
<!-- Node4 -->
<g id="Node000004" class="node">
<title>Node4</title>
<g id="a_Node000004"><a xlink:href="group__EEPROM__Private__Functions.html#gad111ea700245720d7f0cc24b0b8f4f58" target="_top" xlink:title="Returns the last stored variable data, if found, which correspond to the passed virtual address.">
<polygon fill="white" stroke="#666666" points="498,-47 417,-47 417,-28 498,-28 498,-47"/>
<text text-anchor="middle" x="457.5" y="-35" font-family="Helvetica,sans-Serif" font-size="10.00">ReadVariable</text>
</a>
</g>
</g>
<!-- Node3&#45;&gt;Node4 -->
<g id="edge3_Node000003_Node000004" class="edge">
<title>Node3&#45;&gt;Node4</title>
<g id="a_edge3_Node000003_Node000004"><a xlink:title=" ">
<path fill="none" stroke="#63b8ff" d="M381.17,-37.5C389.7,-37.5 398.35,-37.5 406.6,-37.5"/>
<polygon fill="#63b8ff" stroke="#63b8ff" points="406.8,-41 416.8,-37.5 406.8,-34 406.8,-41"/>
</a>
</g>
</g>
<!-- Node5 -->
<g id="Node000005" class="node">
<title>Node5</title>
<g id="a_Node000005"><a xlink:href="group__EEPROM__Private__Functions.html#ga3c5f9766c0fb9b289576dabfc958c0f9" target="_top" xlink:title="This function performs CRC calculation on Data and Virtual Address.">
<polygon fill="white" stroke="#666666" points="612,-84 534,-84 534,-65 612,-65 612,-84"/>
<text text-anchor="middle" x="573" y="-72" font-family="Helvetica,sans-Serif" font-size="10.00">CalculateCrc</text>
</a>
</g>
</g>
<!-- Node4&#45;&gt;Node5 -->
<g id="edge4_Node000004_Node000005" class="edge">
<title>Node4&#45;&gt;Node5</title>
<g id="a_edge4_Node000004_Node000005"><a xlink:title=" ">
<path fill="none" stroke="#63b8ff" d="M487.73,-47.03C501.39,-51.48 517.86,-56.85 532.6,-61.66"/>
<polygon fill="#63b8ff" stroke="#63b8ff" points="531.88,-65.1 542.48,-64.88 534.05,-58.45 531.88,-65.1"/>
</a>
</g>
</g>
<!-- Node6 -->
<g id="Node000006" class="node">
<title>Node6</title>
<g id="a_Node000006"><a xlink:href="group__EEPROM__Private__Functions.html#ga155bacb56c1c6ea24464cdd408fc8ebb" target="_top" xlink:title="Find suitable page for read/write/erase operation.">
<polygon fill="white" stroke="#666666" points="603,-47 543,-47 543,-28 603,-28 603,-47"/>
<text text-anchor="middle" x="573" y="-35" font-family="Helvetica,sans-Serif" font-size="10.00">FindPage</text>
</a>
</g>
</g>
<!-- Node4&#45;&gt;Node6 -->
<g id="edge5_Node000004_Node000006" class="edge">
<title>Node4&#45;&gt;Node6</title>
<g id="a_edge5_Node000004_Node000006"><a xlink:title=" ">
<path fill="none" stroke="#63b8ff" d="M498.2,-37.5C509.34,-37.5 521.45,-37.5 532.57,-37.5"/>
<polygon fill="#63b8ff" stroke="#63b8ff" points="532.88,-41 542.88,-37.5 532.88,-34 532.88,-41"/>
</a>
</g>
</g>
<!-- Node10 -->
<g id="Node000010" class="node">
<title>Node10</title>
<g id="a_Node000010"><a xlink:href="group__EEPROM__Private__Functions.html#ga2304deed602aa5aa10ecebbf7de5352c" target="_top" xlink:title="Get page state in page header.">
<polygon fill="white" stroke="#666666" points="864.5,-19 781.5,-19 781.5,0 864.5,0 864.5,-19"/>
<text text-anchor="middle" x="823" y="-7" font-family="Helvetica,sans-Serif" font-size="10.00">GetPageState</text>
</a>
</g>
</g>
<!-- Node4&#45;&gt;Node10 -->
<g id="edge13_Node000004_Node000010" class="edge">
<title>Node4&#45;&gt;Node10</title>
<g id="a_edge13_Node000004_Node000010"><a xlink:title=" ">
<path fill="none" stroke="#63b8ff" d="M492.06,-27.99C505.05,-24.7 520.11,-21.38 534,-19.5 616.38,-8.35 713.15,-7.46 770.92,-8.21"/>
<polygon fill="#63b8ff" stroke="#63b8ff" points="771.19,-11.71 781.24,-8.37 771.3,-4.72 771.19,-11.71"/>
</a>
</g>
</g>
<!-- Node7 -->
<g id="Node000007" class="node">
<title>Node7</title>
<g id="a_Node000007"><a xlink:href="group__EEPROM__Exported__Functions.html#gaa5483980e10a634ccae116ca5afcb911" target="_top" xlink:title="Erase group of pages which are erasing state, in polling mode.">
<polygon fill="white" stroke="#666666" points="726,-66 651,-66 651,-47 726,-47 726,-66"/>
<text text-anchor="middle" x="688.5" y="-54" font-family="Helvetica,sans-Serif" font-size="10.00">EE_CleanUp</text>
</a>
</g>
</g>
<!-- Node6&#45;&gt;Node7 -->
<g id="edge6_Node000006_Node000007" class="edge">
<title>Node6&#45;&gt;Node7</title>
<g id="a_edge6_Node000006_Node000007"><a xlink:title=" ">
<path fill="none" stroke="#63b8ff" d="M603.23,-42.39C614.63,-44.3 627.99,-46.54 640.67,-48.66"/>
<polygon fill="#63b8ff" stroke="#63b8ff" points="640.19,-52.13 650.64,-50.33 641.35,-45.23 640.19,-52.13"/>
</a>
</g>
</g>
<!-- Node6&#45;&gt;Node10 -->
<g id="edge10_Node000006_Node000010" class="edge">
<title>Node6&#45;&gt;Node10</title>
<g id="a_edge10_Node000006_Node000010"><a xlink:title=" ">
<path fill="none" stroke="#63b8ff" d="M603.42,-34.18C644.72,-29.52 720.46,-20.96 771.03,-15.26"/>
<polygon fill="#63b8ff" stroke="#63b8ff" points="771.56,-18.72 781.1,-14.12 770.77,-11.76 771.56,-18.72"/>
</a>
</g>
</g>
<!-- Node11 -->
<g id="Node000011" class="node">
<title>Node11</title>
<g id="a_Node000011"><a xlink:href="group__EEPROM__Private__Functions.html#gab2cc682a7689c76d4188bda3af6e9b0f" target="_top" xlink:title="Set page state in page header.">
<polygon fill="white" stroke="#666666" points="729,-121 648,-121 648,-102 729,-102 729,-121"/>
<text text-anchor="middle" x="688.5" y="-109" font-family="Helvetica,sans-Serif" font-size="10.00">SetPageState</text>
</a>
</g>
</g>
<!-- Node6&#45;&gt;Node11 -->
<g id="edge11_Node000006_Node000011" class="edge">
<title>Node6&#45;&gt;Node11</title>
<g id="a_edge11_Node000006_Node000011"><a xlink:title=" ">
<path fill="none" stroke="#63b8ff" d="M594.85,-47.15C600.51,-49.98 606.58,-53.2 612,-56.5 631.69,-68.48 652.78,-84.11 667.66,-95.64"/>
<polygon fill="#63b8ff" stroke="#63b8ff" points="665.61,-98.48 675.64,-101.9 669.93,-92.98 665.61,-98.48"/>
</a>
</g>
</g>
<!-- Node8 -->
<g id="Node000008" class="node">
<title>Node8</title>
<g id="a_Node000008"><a xlink:href="group__EEPROM__Private__Functions.html#ga4375dd5bf83e259a3481a83b5993a1a3" target="_top" xlink:title="Flush the caches if needed to keep coherency when the flash content is modified.">
<polygon fill="white" stroke="#666666" points="866.5,-56 779.5,-56 779.5,-37 866.5,-37 866.5,-56"/>
<text text-anchor="middle" x="823" y="-44" font-family="Helvetica,sans-Serif" font-size="10.00">FI_CacheFlush</text>
</a>
</g>
</g>
<!-- Node7&#45;&gt;Node8 -->
<g id="edge7_Node000007_Node000008" class="edge">
<title>Node7&#45;&gt;Node8</title>
<g id="a_edge7_Node000007_Node000008"><a xlink:title=" ">
<path fill="none" stroke="#63b8ff" d="M726.06,-53.74C739.37,-52.74 754.7,-51.58 769.15,-50.49"/>
<polygon fill="#63b8ff" stroke="#63b8ff" points="769.76,-53.95 779.47,-49.71 769.23,-46.97 769.76,-53.95"/>
</a>
</g>
</g>
<!-- Node9 -->
<g id="Node000009" class="node">
<title>Node9</title>
<g id="a_Node000009"><a xlink:href="group__EEPROM__Private__Functions.html#gaf950461e14bae3fd51f89e9dd59db26b" target="_top" xlink:title="Erase a page in polling mode.">
<polygon fill="white" stroke="#666666" points="863.5,-93 782.5,-93 782.5,-74 863.5,-74 863.5,-93"/>
<text text-anchor="middle" x="823" y="-81" font-family="Helvetica,sans-Serif" font-size="10.00">FI_PageErase</text>
</a>
</g>
</g>
<!-- Node7&#45;&gt;Node9 -->
<g id="edge8_Node000007_Node000009" class="edge">
<title>Node7&#45;&gt;Node9</title>
<g id="a_edge8_Node000007_Node000009"><a xlink:title=" ">
<path fill="none" stroke="#63b8ff" d="M726.06,-63.95C740.38,-66.87 757.05,-70.26 772.43,-73.4"/>
<polygon fill="#63b8ff" stroke="#63b8ff" points="771.81,-76.84 782.31,-75.41 773.21,-69.99 771.81,-76.84"/>
</a>
</g>
</g>
<!-- Node7&#45;&gt;Node10 -->
<g id="edge9_Node000007_Node000010" class="edge">
<title>Node7&#45;&gt;Node10</title>
<g id="a_edge9_Node000007_Node000010"><a xlink:title=" ">
<path fill="none" stroke="#63b8ff" d="M714.59,-46.96C729.25,-41.44 748.12,-34.44 765,-28.5 770.74,-26.48 776.82,-24.4 782.78,-22.38"/>
<polygon fill="#63b8ff" stroke="#63b8ff" points="784.28,-25.57 792.65,-19.08 782.05,-18.93 784.28,-25.57"/>
</a>
</g>
</g>
<!-- Node12 -->
<g id="Node000012" class="node">
<title>Node12</title>
<g id="a_Node000012"><a xlink:href="group__EEPROM__Private__Functions.html#gaaf190b387699ec8d894cfe8449522084" target="_top" xlink:title="Write a quad word at the given address in Flash (function is called FI_WriteDoubleWord to respect leg...">
<polygon fill="white" stroke="#666666" points="881,-130 765,-130 765,-111 881,-111 881,-130"/>
<text text-anchor="middle" x="823" y="-118" font-family="Helvetica,sans-Serif" font-size="10.00">FI_WriteDoubleWord</text>
</a>
</g>
</g>
<!-- Node11&#45;&gt;Node12 -->
<g id="edge12_Node000011_Node000012" class="edge">
<title>Node11&#45;&gt;Node12</title>
<g id="a_edge12_Node000011_Node000012"><a xlink:title=" ">
<path fill="none" stroke="#63b8ff" d="M729.25,-114.2C737.25,-114.74 745.87,-115.33 754.51,-115.92"/>
<polygon fill="#63b8ff" stroke="#63b8ff" points="754.42,-119.42 764.64,-116.6 754.9,-112.43 754.42,-119.42"/>
</a>
</g>
</g>
</g>
</svg>

<g id="navigator" transform="translate(0 0)" fill="#404254">
  <rect fill="#f2f5e9" fill-opacity="0.5" stroke="#606060" stroke-width=".5" x="0" y="0" width="60" height="60"/>
  <use id="zoomplus" xlink:href="#zoomPlus" x="17" y="9" onmousedown="handleZoom(evt,'in')"/>
  <use id="zoomminus" xlink:href="#zoomMin" x="42" y="9" onmousedown="handleZoom(evt,'out')"/>
  <use id="reset" xlink:href="#resetDef" x="30" y="36" onmousedown="handleReset()"/>
   <use id="arrowup" xlink:href="#arrowUp" x="0" y="0" onmousedown="handlePan(0,-1)"/>
  <use id="arrowright" xlink:href="#arrowRight" x="0" y="0" onmousedown="handlePan(1,0)"/>
  <use id="arrowdown" xlink:href="#arrowDown" x="0" y="0" onmousedown="handlePan(0,1)"/>
  <use id="arrowleft" xlink:href="#arrowLeft" x="0" y="0" onmousedown="handlePan(-1,0)"/>
</g>
<svg viewBox="0 0 15 15" width="100%" height="30px" preserveAspectRatio="xMaxYMin meet">
 <g id="arrow_out" transform="scale(0.3 0.3)">
  <a xlink:href="nvs__config_8c_a6d39a27e265f5d039fb96df6f8e6944a_cgraph_org.svg" target="_base">
   <rect id="button" ry="5" rx="5" y="6" x="6" height="38" width="38"
        fill="#f2f5e9" fill-opacity="0.5" stroke="#606060" stroke-width="1.0"/>
   <path id="arrow"
     d="M 11.500037,31.436501 C 11.940474,20.09759 22.043105,11.32322 32.158766,21.979434 L 37.068811,17.246167 C 37.068811,17.246167 37.088388,32 37.088388,32 L 22.160133,31.978069 C 22.160133,31.978069 26.997745,27.140456 26.997745,27.140456 C 18.528582,18.264221 13.291696,25.230495 11.500037,31.436501 z"
     style="fill:#404040;"/>
  </a>
 </g>
</svg>

<style type='text/css'>
<![CDATA[
[data-mouse-over-selected='false'] { opacity: 0.7; }
[data-mouse-over-selected='true']  { opacity: 1.0; }
]]>
</style>
<script type="application/ecmascript"><![CDATA[
document.addEventListener('DOMContentLoaded', (event) => {
  highlightEdges();
  highlightAdjacentNodes();
});
]]></script>
</svg>
