<?xml version="1.0" encoding="UTF-8" standalone="no"?>
<!DOCTYPE svg PUBLIC "-//W3C//DTD SVG 1.1//EN"
 "http://www.w3.org/Graphics/SVG/1.1/DTD/svg11.dtd">
<!-- Generated by graphviz version 2.43.0 (0)
 -->
<!-- Title: verify_freq Pages: 1 -->
<!--zoomable 175 -->
<svg id="main" version="1.1" xmlns="http://www.w3.org/2000/svg" xmlns:xlink="http://www.w3.org/1999/xlink" xml:space="preserve" onload="init(evt)">
<style type="text/css"><![CDATA[
.edge:hover path { stroke: red; }
.edge:hover polygon { stroke: red; fill: red; }
]]></style>
<script type="text/javascript"><![CDATA[
var edges = document.getElementsByTagName('g');
if (edges && edges.length) {
  for (var i=0;i<edges.length;i++) {
    if (edges[i].id.substr(0,4)=='edge') {
      edges[i].setAttribute('class','edge');
    }
  }
}
]]></script>
        <defs>
                <circle id="rim" cx="0" cy="0" r="7"/>
                <circle id="rim2" cx="0" cy="0" r="3.5"/>
                <g id="zoomPlus">
                        <use xlink:href="#rim" fill="#404040">
                                <set attributeName="fill" to="#808080" begin="zoomplus.mouseover" end="zoomplus.mouseout"/>
                        </use>
                        <path d="M-4,0h8M0,-4v8" fill="none" stroke="white" stroke-width="1.5" pointer-events="none"/>
                </g>
                <g id="zoomMin">
                        <use xlink:href="#rim" fill="#404040">
                                <set attributeName="fill" to="#808080" begin="zoomminus.mouseover" end="zoomminus.mouseout"/>
                        </use>
                        <path d="M-4,0h8" fill="none" stroke="white" stroke-width="1.5" pointer-events="none"/>
                </g>
                <g id="dirArrow">
                        <path fill="none" stroke="white" stroke-width="1.5" d="M0,-3.0v7 M-2.5,-0.5L0,-3.0L2.5,-0.5"/>
                </g>
               <g id="resetDef">
                       <use xlink:href="#rim2" fill="#404040">
                               <set attributeName="fill" to="#808080" begin="reset.mouseover" end="reset.mouseout"/>
                       </use>
               </g>
        </defs>

<script type="text/javascript">
var viewWidth = 590;
var viewHeight = 175;
var sectionId = 'dynsection-17';
</script>
<script xlink:href="svgpan.js"/>
<svg id="graph" class="graph">
<g id="viewport">
<title>verify_freq</title>
<!-- Node1 -->
<g id="node1" class="node">
<title>Node1</title>
<g id="a_node1"><a xlink:title=" ">
<polygon fill="#999999" stroke="#666666" points="69,-93 0,-93 0,-74 69,-74 69,-93"/>
<text text-anchor="middle" x="34.5" y="-81" font-family="Helvetica,sans-Serif" font-size="10.00">verify_freq</text>
</a>
</g>
</g>
<!-- Node2 -->
<g id="node2" class="node">
<title>Node2</title>
<g id="a_node2"><a xlink:href="sx1280_8c.html#ae97f22ad3f1cd7ff7daece379531a78d" target="_top" xlink:title="Resets the radio.">
<polygon fill="white" stroke="#666666" points="210.5,-167 129.5,-167 129.5,-148 210.5,-148 210.5,-167"/>
<text text-anchor="middle" x="170" y="-155" font-family="Helvetica,sans-Serif" font-size="10.00">SX1280Reset</text>
</a>
</g>
</g>
<!-- Node1&#45;&gt;Node2 -->
<g id="edge1" class="edge">
<title>Node1&#45;&gt;Node2</title>
<path fill="none" stroke="#63b8ff" d="M44.95,-93.25C57.54,-105.71 81.04,-127.14 105,-139.5 109.63,-141.89 114.61,-143.99 119.68,-145.84"/>
<polygon fill="#63b8ff" stroke="#63b8ff" points="118.87,-149.26 129.46,-149.08 121.07,-142.61 118.87,-149.26"/>
</g>
<!-- Node4 -->
<g id="node4" class="node">
<title>Node4</title>
<g id="a_node4"><a xlink:href="sx1280_8c.html#a51ce51cce8dac5a81ed16da5d6350bb1" target="_top" xlink:title="Sets the radio for the given protocol.">
<polygon fill="white" stroke="#666666" points="231.5,-130 108.5,-130 108.5,-111 231.5,-111 231.5,-130"/>
<text text-anchor="middle" x="170" y="-118" font-family="Helvetica,sans-Serif" font-size="10.00">SX1280SetPacketType</text>
</a>
</g>
</g>
<!-- Node1&#45;&gt;Node4 -->
<g id="edge3" class="edge">
<title>Node1&#45;&gt;Node4</title>
<path fill="none" stroke="#63b8ff" d="M69.19,-92.84C86,-97.5 106.56,-103.2 124.64,-108.21"/>
<polygon fill="#63b8ff" stroke="#63b8ff" points="123.82,-111.61 134.39,-110.91 125.69,-104.86 123.82,-111.61"/>
</g>
<!-- Node7 -->
<g id="node7" class="node">
<title>Node7</title>
<g id="a_node7"><a xlink:href="sx1280_8c.html#a4b53cd57d78c3bbc143164769912140a" target="_top" xlink:title="Sets the RF frequency.">
<polygon fill="white" stroke="#666666" points="235,-93 105,-93 105,-74 235,-74 235,-93"/>
<text text-anchor="middle" x="170" y="-81" font-family="Helvetica,sans-Serif" font-size="10.00">SX1280SetRfFrequency</text>
</a>
</g>
</g>
<!-- Node1&#45;&gt;Node7 -->
<g id="edge6" class="edge">
<title>Node1&#45;&gt;Node7</title>
<path fill="none" stroke="#63b8ff" d="M69.19,-83.5C77.1,-83.5 85.84,-83.5 94.77,-83.5"/>
<polygon fill="#63b8ff" stroke="#63b8ff" points="94.88,-87 104.88,-83.5 94.88,-80 94.88,-87"/>
</g>
<!-- Node8 -->
<g id="node8" class="node">
<title>Node8</title>
<g id="a_node8"><a xlink:href="sx1280_8c.html#a074d83ce6ba238f9af19b8bdbff61360" target="_top" xlink:title="Sets the radio in configuration mode.">
<polygon fill="white" stroke="#666666" points="224.5,-56 115.5,-56 115.5,-37 224.5,-37 224.5,-56"/>
<text text-anchor="middle" x="170" y="-44" font-family="Helvetica,sans-Serif" font-size="10.00">SX1280SetStandby</text>
</a>
</g>
</g>
<!-- Node1&#45;&gt;Node8 -->
<g id="edge8" class="edge">
<title>Node1&#45;&gt;Node8</title>
<path fill="none" stroke="#63b8ff" d="M69.19,-74.16C86,-69.5 106.56,-63.8 124.64,-58.79"/>
<polygon fill="#63b8ff" stroke="#63b8ff" points="125.69,-62.14 134.39,-56.09 123.82,-55.39 125.69,-62.14"/>
</g>
<!-- Node9 -->
<g id="node9" class="node">
<title>Node9</title>
<g id="a_node9"><a xlink:href="sx1280_8c.html#a1c5345ef8b25e8092415fd50f53ffa24" target="_top" xlink:title="Sets the transmission parameters.">
<polygon fill="white" stroke="#666666" points="228.5,-19 111.5,-19 111.5,0 228.5,0 228.5,-19"/>
<text text-anchor="middle" x="170" y="-7" font-family="Helvetica,sans-Serif" font-size="10.00">SX1280SetTxParams</text>
</a>
</g>
</g>
<!-- Node1&#45;&gt;Node9 -->
<g id="edge10" class="edge">
<title>Node1&#45;&gt;Node9</title>
<path fill="none" stroke="#63b8ff" d="M45.01,-73.98C57.67,-61.81 81.24,-40.84 105,-28.5 109.28,-26.28 113.85,-24.28 118.51,-22.49"/>
<polygon fill="#63b8ff" stroke="#63b8ff" points="119.87,-25.72 128.14,-19.09 117.55,-19.12 119.87,-25.72"/>
</g>
<!-- Node3 -->
<g id="node3" class="node">
<title>Node3</title>
<g id="a_node3"><a xlink:href="sx1280-hal_8c.html#ad166767283bbb3d7a387ecf2f089cd23" target="_top" xlink:title="Soft resets the radio.">
<polygon fill="white" stroke="#666666" points="393,-167 295,-167 295,-148 393,-148 393,-167"/>
<text text-anchor="middle" x="344" y="-155" font-family="Helvetica,sans-Serif" font-size="10.00">SX1280HalReset</text>
</a>
</g>
</g>
<!-- Node2&#45;&gt;Node3 -->
<g id="edge2" class="edge">
<title>Node2&#45;&gt;Node3</title>
<path fill="none" stroke="#63b8ff" d="M210.89,-157.5C232.77,-157.5 260.31,-157.5 284.57,-157.5"/>
<polygon fill="#63b8ff" stroke="#63b8ff" points="284.75,-161 294.75,-157.5 284.75,-154 284.75,-161"/>
</g>
<!-- Node5 -->
<g id="node5" class="node">
<title>Node5</title>
<g id="a_node5"><a xlink:href="sx1280-hal_8c.html#a0f829303c184f799accc7c0f86775284" target="_top" xlink:title="Send a command that write data to the radio.">
<polygon fill="white" stroke="#666666" points="417,-75 271,-75 271,-56 417,-56 417,-75"/>
<text text-anchor="middle" x="344" y="-63" font-family="Helvetica,sans-Serif" font-size="10.00">SX1280HalWriteCommand</text>
</a>
</g>
</g>
<!-- Node4&#45;&gt;Node5 -->
<g id="edge4" class="edge">
<title>Node4&#45;&gt;Node5</title>
<path fill="none" stroke="#63b8ff" d="M206.31,-110.95C215.67,-108.31 225.74,-105.38 235,-102.5 259.18,-94.97 286.12,-85.74 307.05,-78.38"/>
<polygon fill="#63b8ff" stroke="#63b8ff" points="308.24,-81.67 316.51,-75.04 305.91,-75.07 308.24,-81.67"/>
</g>
<!-- Node6 -->
<g id="node6" class="node">
<title>Node6</title>
<g id="a_node6"><a xlink:href="sx1280-hal_8c.html#af63c987628865d85cf78fde47290858a" target="_top" xlink:title="Used to block execution waiting for low state on radio busy pin.">
<polygon fill="white" stroke="#666666" points="582,-75 453,-75 453,-56 582,-56 582,-75"/>
<text text-anchor="middle" x="517.5" y="-63" font-family="Helvetica,sans-Serif" font-size="10.00">SX1280HalWaitOnBusy</text>
</a>
</g>
</g>
<!-- Node5&#45;&gt;Node6 -->
<g id="edge5" class="edge">
<title>Node5&#45;&gt;Node6</title>
<path fill="none" stroke="#63b8ff" d="M417.23,-65.5C425.63,-65.5 434.2,-65.5 442.62,-65.5"/>
<polygon fill="#63b8ff" stroke="#63b8ff" points="442.79,-69 452.79,-65.5 442.79,-62 442.79,-69"/>
</g>
<!-- Node7&#45;&gt;Node5 -->
<g id="edge7" class="edge">
<title>Node7&#45;&gt;Node5</title>
<path fill="none" stroke="#63b8ff" d="M235.05,-76.8C243.42,-75.92 252.09,-75.01 260.72,-74.11"/>
<polygon fill="#63b8ff" stroke="#63b8ff" points="261.21,-77.58 270.8,-73.06 260.49,-70.62 261.21,-77.58"/>
</g>
<!-- Node8&#45;&gt;Node5 -->
<g id="edge9" class="edge">
<title>Node8&#45;&gt;Node5</title>
<path fill="none" stroke="#63b8ff" d="M224.95,-52.46C236.34,-53.72 248.61,-55.07 260.77,-56.42"/>
<polygon fill="#63b8ff" stroke="#63b8ff" points="260.62,-59.92 270.95,-57.54 261.39,-52.96 260.62,-59.92"/>
</g>
<!-- Node9&#45;&gt;Node5 -->
<g id="edge11" class="edge">
<title>Node9&#45;&gt;Node5</title>
<path fill="none" stroke="#63b8ff" d="M203.97,-19C213.96,-21.96 224.95,-25.29 235,-28.5 258.96,-36.16 285.7,-45.31 306.58,-52.6"/>
<polygon fill="#63b8ff" stroke="#63b8ff" points="305.43,-55.91 316.03,-55.91 307.75,-49.3 305.43,-55.91"/>
</g>
</g>
</svg>
        <g id="navigator" transform="translate(0 0)" fill="#404254">
                <rect fill="#f2f5e9" fill-opacity="0.5" stroke="#606060" stroke-width=".5" x="0" y="0" width="60" height="60"/>
                <use id="zoomplus" xlink:href="#zoomPlus" x="17" y="9" onmousedown="handleZoom(evt,'in')"/>
                <use id="zoomminus" xlink:href="#zoomMin" x="42" y="9" onmousedown="handleZoom(evt,'out')"/>
                <use id="reset" xlink:href="#resetDef" x="30" y="36" onmousedown="handleReset()"/>
                <g id="arrowUp" xlink:href="#dirArrow" transform="translate(30 24)" onmousedown="handlePan(0,-1)">
                  <use xlink:href="#rim" fill="#404040">
                        <set attributeName="fill" to="#808080" begin="arrowUp.mouseover" end="arrowUp.mouseout"/>
                  </use>
                  <path fill="none" stroke="white" stroke-width="1.5" d="M0,-3.0v7 M-2.5,-0.5L0,-3.0L2.5,-0.5"/>
                </g>
                <g id="arrowRight" xlink:href="#dirArrow" transform="rotate(90) translate(36 -43)" onmousedown="handlePan(1,0)">
                  <use xlink:href="#rim" fill="#404040">
                        <set attributeName="fill" to="#808080" begin="arrowRight.mouseover" end="arrowRight.mouseout"/>
                  </use>
                  <path fill="none" stroke="white" stroke-width="1.5" d="M0,-3.0v7 M-2.5,-0.5L0,-3.0L2.5,-0.5"/>
                </g>
                <g id="arrowDown" xlink:href="#dirArrow" transform="rotate(180) translate(-30 -48)" onmousedown="handlePan(0,1)">
                  <use xlink:href="#rim" fill="#404040">
                        <set attributeName="fill" to="#808080" begin="arrowDown.mouseover" end="arrowDown.mouseout"/>
                  </use>
                  <path fill="none" stroke="white" stroke-width="1.5" d="M0,-3.0v7 M-2.5,-0.5L0,-3.0L2.5,-0.5"/>
                </g>
                <g id="arrowLeft" xlink:href="#dirArrow" transform="rotate(270) translate(-36 17)" onmousedown="handlePan(-1,0)">
                  <use xlink:href="#rim" fill="#404040">
                        <set attributeName="fill" to="#808080" begin="arrowLeft.mouseover" end="arrowLeft.mouseout"/>
                  </use>
                  <path fill="none" stroke="white" stroke-width="1.5" d="M0,-3.0v7 M-2.5,-0.5L0,-3.0L2.5,-0.5"/>
                </g>
        </g>
        <svg viewBox="0 0 15 15" width="100%" height="30px" preserveAspectRatio="xMaxYMin meet">
         <g id="arrow_out" transform="scale(0.3 0.3)">
          <a xlink:href="sx1280__task_8c_a08a0d39a0c2e7c960630f1125434da42_cgraph_org.svg" target="_base">
           <rect id="button" ry="5" rx="5" y="6" x="6" height="38" width="38"
                fill="#f2f5e9" fill-opacity="0.5" stroke="#606060" stroke-width="1.0"/>
           <path id="arrow"
             d="M 11.500037,31.436501 C 11.940474,20.09759 22.043105,11.32322 32.158766,21.979434 L 37.068811,17.246167 C 37.068811,17.246167 37.088388,32 37.088388,32 L 22.160133,31.978069 C 22.160133,31.978069 26.997745,27.140456 26.997745,27.140456 C 18.528582,18.264221 13.291696,25.230495 11.500037,31.436501 z"
             style="fill:#404040;"/>
          </a>
         </g>
        </svg>
</svg>
