<?xml version="1.0" encoding="UTF-8" standalone="no"?>
<!DOCTYPE svg PUBLIC "-//W3C//DTD SVG 1.1//EN"
 "http://www.w3.org/Graphics/SVG/1.1/DTD/svg11.dtd">
<!-- Generated by graphviz version 2.43.0 (0)
 -->
<!-- Title: SX1280complement2 Pages: 1 -->
<svg width="309pt" height="64pt"
 viewBox="0.00 0.00 309.00 64.00" xmlns="http://www.w3.org/2000/svg" xmlns:xlink="http://www.w3.org/1999/xlink">
<g id="graph0" class="graph" transform="scale(1 1) rotate(0) translate(4 60)">
<title>SX1280complement2</title>
<!-- Node1 -->
<g id="node1" class="node">
<title>Node1</title>
<g id="a_node1"><a xlink:title="Compute the two&#39;s complement for a register of size lower than 32bits.">
<polygon fill="#999999" stroke="#666666" points="301,-37 180,-37 180,-18 301,-18 301,-37"/>
<text text-anchor="middle" x="240.5" y="-25" font-family="Helvetica,sans-Serif" font-size="10.00">SX1280complement2</text>
</a>
</g>
</g>
<!-- Node2 -->
<g id="node2" class="node">
<title>Node2</title>
<g id="a_node2"><a xlink:href="sx1280_8c.html#a83a3b438ff77c40e11276d8aa92ca48c" target="_top" xlink:title="Return the Estimated Frequency Error in LORA and RANGING operations.">
<polygon fill="white" stroke="#666666" points="144,-56 0,-56 0,-37 144,-37 144,-56"/>
<text text-anchor="middle" x="72" y="-44" font-family="Helvetica,sans-Serif" font-size="10.00">SX1280GetFrequencyError</text>
</a>
</g>
</g>
<!-- Node1&#45;&gt;Node2 -->
<g id="edge1" class="edge">
<title>Node1&#45;&gt;Node2</title>
<path fill="none" stroke="#63b8ff" d="M169.68,-35.47C161.24,-36.43 152.62,-37.41 144.16,-38.38"/>
<polygon fill="#63b8ff" stroke="#63b8ff" points="170.32,-38.92 179.86,-34.31 169.53,-31.96 170.32,-38.92"/>
</g>
<!-- Node3 -->
<g id="node3" class="node">
<title>Node3</title>
<g id="a_node3"><a xlink:href="sx1280_8c.html#a17d5de63553dd70d443bc4ec852a0344" target="_top" xlink:title="Return the ranging result value.">
<polygon fill="white" stroke="#666666" points="142.5,-19 1.5,-19 1.5,0 142.5,0 142.5,-19"/>
<text text-anchor="middle" x="72" y="-7" font-family="Helvetica,sans-Serif" font-size="10.00">SX1280GetRangingResult</text>
</a>
</g>
</g>
<!-- Node1&#45;&gt;Node3 -->
<g id="edge2" class="edge">
<title>Node1&#45;&gt;Node3</title>
<path fill="none" stroke="#63b8ff" d="M169.85,-19.97C160.88,-19 151.69,-18.01 142.72,-17.04"/>
<polygon fill="#63b8ff" stroke="#63b8ff" points="169.54,-23.46 179.86,-21.05 170.29,-16.5 169.54,-23.46"/>
</g>
</g>
</svg>
