<?xml version="1.0" encoding="UTF-8" standalone="no"?>
<!DOCTYPE svg PUBLIC "-//W3C//DTD SVG 1.1//EN"
 "http://www.w3.org/Graphics/SVG/1.1/DTD/svg11.dtd">
<!-- Generated by graphviz version 2.43.0 (0)
 -->
<!-- Title: SX1280SetRx Pages: 1 -->
<!--zoomable 140 -->
<svg id="main" version="1.1" xmlns="http://www.w3.org/2000/svg" xmlns:xlink="http://www.w3.org/1999/xlink" xml:space="preserve" onload="init(evt)">
<style type="text/css"><![CDATA[
.edge:hover path { stroke: red; }
.edge:hover polygon { stroke: red; fill: red; }
]]></style>
<script type="text/javascript"><![CDATA[
var edges = document.getElementsByTagName('g');
if (edges && edges.length) {
  for (var i=0;i<edges.length;i++) {
    if (edges[i].id.substr(0,4)=='edge') {
      edges[i].setAttribute('class','edge');
    }
  }
}
]]></script>
        <defs>
                <circle id="rim" cx="0" cy="0" r="7"/>
                <circle id="rim2" cx="0" cy="0" r="3.5"/>
                <g id="zoomPlus">
                        <use xlink:href="#rim" fill="#404040">
                                <set attributeName="fill" to="#808080" begin="zoomplus.mouseover" end="zoomplus.mouseout"/>
                        </use>
                        <path d="M-4,0h8M0,-4v8" fill="none" stroke="white" stroke-width="1.5" pointer-events="none"/>
                </g>
                <g id="zoomMin">
                        <use xlink:href="#rim" fill="#404040">
                                <set attributeName="fill" to="#808080" begin="zoomminus.mouseover" end="zoomminus.mouseout"/>
                        </use>
                        <path d="M-4,0h8" fill="none" stroke="white" stroke-width="1.5" pointer-events="none"/>
                </g>
                <g id="dirArrow">
                        <path fill="none" stroke="white" stroke-width="1.5" d="M0,-3.0v7 M-2.5,-0.5L0,-3.0L2.5,-0.5"/>
                </g>
               <g id="resetDef">
                       <use xlink:href="#rim2" fill="#404040">
                               <set attributeName="fill" to="#808080" begin="reset.mouseover" end="reset.mouseout"/>
                       </use>
               </g>
        </defs>

<script type="text/javascript">
var viewWidth = 604;
var viewHeight = 140;
var sectionId = 'dynsection-73';
</script>
<script xlink:href="svgpan.js"/>
<svg id="graph" class="graph">
<g id="viewport">
<title>SX1280SetRx</title>
<!-- Node1 -->
<g id="node1" class="node">
<title>Node1</title>
<g id="a_node1"><a xlink:title="Sets the radio in reception mode.">
<polygon fill="#999999" stroke="#666666" points="82,-75 0,-75 0,-56 82,-56 82,-75"/>
<text text-anchor="middle" x="41" y="-63" font-family="Helvetica,sans-Serif" font-size="10.00">SX1280SetRx</text>
</a>
</g>
</g>
<!-- Node2 -->
<g id="node2" class="node">
<title>Node2</title>
<g id="a_node2"><a xlink:href="sx1280_8c.html#a24c5e4e70bd2db5b0513a3610b43043f" target="_top" xlink:title="Clears the IRQs.">
<polygon fill="white" stroke="#666666" points="244.5,-132 122.5,-132 122.5,-113 244.5,-113 244.5,-132"/>
<text text-anchor="middle" x="183.5" y="-120" font-family="Helvetica,sans-Serif" font-size="10.00">SX1280ClearIrqStatus</text>
</a>
</g>
</g>
<!-- Node1&#45;&gt;Node2 -->
<g id="edge1" class="edge">
<title>Node1&#45;&gt;Node2</title>
<path fill="none" stroke="#63b8ff" d="M63.17,-75.05C78.34,-81.81 99.32,-90.98 118,-98.5 127.03,-102.14 136.85,-105.89 146.04,-109.32"/>
<polygon fill="#63b8ff" stroke="#63b8ff" points="145.11,-112.71 155.7,-112.89 147.54,-106.14 145.11,-112.71"/>
</g>
<!-- Node3 -->
<g id="node3" class="node">
<title>Node3</title>
<g id="a_node3"><a xlink:href="sx1280-hal_8c.html#a0f829303c184f799accc7c0f86775284" target="_top" xlink:title="Send a command that write data to the radio.">
<polygon fill="white" stroke="#666666" points="431,-94 285,-94 285,-75 431,-75 431,-94"/>
<text text-anchor="middle" x="358" y="-82" font-family="Helvetica,sans-Serif" font-size="10.00">SX1280HalWriteCommand</text>
</a>
</g>
</g>
<!-- Node1&#45;&gt;Node3 -->
<g id="edge5" class="edge">
<title>Node1&#45;&gt;Node3</title>
<path fill="none" stroke="#63b8ff" d="M82.21,-67.93C130.53,-70.84 212.81,-75.8 274.77,-79.54"/>
<polygon fill="#63b8ff" stroke="#63b8ff" points="274.72,-83.04 284.92,-80.15 275.15,-76.06 274.72,-83.04"/>
</g>
<!-- Node5 -->
<g id="node5" class="node">
<title>Node5</title>
<g id="a_node5"><a xlink:href="sx1280_8c.html#a0a853efd19951935adb13f544740731e" target="_top" xlink:title="Gets the current radio protocol.">
<polygon fill="white" stroke="#666666" points="246,-56 121,-56 121,-37 246,-37 246,-56"/>
<text text-anchor="middle" x="183.5" y="-44" font-family="Helvetica,sans-Serif" font-size="10.00">SX1280GetPacketType</text>
</a>
</g>
</g>
<!-- Node1&#45;&gt;Node5 -->
<g id="edge4" class="edge">
<title>Node1&#45;&gt;Node5</title>
<path fill="none" stroke="#63b8ff" d="M82.26,-60.06C91.17,-58.85 100.87,-57.54 110.61,-56.22"/>
<polygon fill="#63b8ff" stroke="#63b8ff" points="111.3,-59.66 120.74,-54.85 110.36,-52.72 111.3,-59.66"/>
</g>
<!-- Node6 -->
<g id="node6" class="node">
<title>Node6</title>
<g id="a_node6"><a xlink:href="sx1280_8c.html#a054708c6562732737571056e239285ac" target="_top" xlink:title="Set the role of the radio during ranging operations.">
<polygon fill="white" stroke="#666666" points="249,-19 118,-19 118,0 249,0 249,-19"/>
<text text-anchor="middle" x="183.5" y="-7" font-family="Helvetica,sans-Serif" font-size="10.00">SX1280SetRangingRole</text>
</a>
</g>
</g>
<!-- Node1&#45;&gt;Node6 -->
<g id="edge6" class="edge">
<title>Node1&#45;&gt;Node6</title>
<path fill="none" stroke="#63b8ff" d="M59.44,-55.97C74.61,-47.94 97.34,-36.51 118,-28.5 123.93,-26.2 130.25,-24.02 136.54,-22.01"/>
<polygon fill="#63b8ff" stroke="#63b8ff" points="137.79,-25.29 146.32,-19.01 135.73,-18.6 137.79,-25.29"/>
</g>
<!-- Node2&#45;&gt;Node3 -->
<g id="edge2" class="edge">
<title>Node2&#45;&gt;Node3</title>
<path fill="none" stroke="#63b8ff" d="M228.03,-112.91C251.1,-107.83 279.63,-101.54 303.98,-96.18"/>
<polygon fill="#63b8ff" stroke="#63b8ff" points="304.77,-99.59 313.78,-94.02 303.27,-92.75 304.77,-99.59"/>
</g>
<!-- Node4 -->
<g id="node4" class="node">
<title>Node4</title>
<g id="a_node4"><a xlink:href="sx1280-hal_8c.html#af63c987628865d85cf78fde47290858a" target="_top" xlink:title="Used to block execution waiting for low state on radio busy pin.">
<polygon fill="white" stroke="#666666" points="596,-94 467,-94 467,-75 596,-75 596,-94"/>
<text text-anchor="middle" x="531.5" y="-82" font-family="Helvetica,sans-Serif" font-size="10.00">SX1280HalWaitOnBusy</text>
</a>
</g>
</g>
<!-- Node3&#45;&gt;Node4 -->
<g id="edge3" class="edge">
<title>Node3&#45;&gt;Node4</title>
<path fill="none" stroke="#63b8ff" d="M431.23,-84.5C439.63,-84.5 448.2,-84.5 456.62,-84.5"/>
<polygon fill="#63b8ff" stroke="#63b8ff" points="456.79,-88 466.79,-84.5 456.79,-81 456.79,-88"/>
</g>
<!-- Node6&#45;&gt;Node3 -->
<g id="edge7" class="edge">
<title>Node6&#45;&gt;Node3</title>
<path fill="none" stroke="#63b8ff" d="M221.42,-19.05C230.55,-21.77 240.23,-24.97 249,-28.5 278.53,-40.38 310.72,-57.68 332.2,-69.9"/>
<polygon fill="#63b8ff" stroke="#63b8ff" points="330.58,-73 340.99,-74.96 334.07,-66.94 330.58,-73"/>
</g>
</g>
</svg>
        <g id="navigator" transform="translate(0 0)" fill="#404254">
                <rect fill="#f2f5e9" fill-opacity="0.5" stroke="#606060" stroke-width=".5" x="0" y="0" width="60" height="60"/>
                <use id="zoomplus" xlink:href="#zoomPlus" x="17" y="9" onmousedown="handleZoom(evt,'in')"/>
                <use id="zoomminus" xlink:href="#zoomMin" x="42" y="9" onmousedown="handleZoom(evt,'out')"/>
                <use id="reset" xlink:href="#resetDef" x="30" y="36" onmousedown="handleReset()"/>
                <g id="arrowUp" xlink:href="#dirArrow" transform="translate(30 24)" onmousedown="handlePan(0,-1)">
                  <use xlink:href="#rim" fill="#404040">
                        <set attributeName="fill" to="#808080" begin="arrowUp.mouseover" end="arrowUp.mouseout"/>
                  </use>
                  <path fill="none" stroke="white" stroke-width="1.5" d="M0,-3.0v7 M-2.5,-0.5L0,-3.0L2.5,-0.5"/>
                </g>
                <g id="arrowRight" xlink:href="#dirArrow" transform="rotate(90) translate(36 -43)" onmousedown="handlePan(1,0)">
                  <use xlink:href="#rim" fill="#404040">
                        <set attributeName="fill" to="#808080" begin="arrowRight.mouseover" end="arrowRight.mouseout"/>
                  </use>
                  <path fill="none" stroke="white" stroke-width="1.5" d="M0,-3.0v7 M-2.5,-0.5L0,-3.0L2.5,-0.5"/>
                </g>
                <g id="arrowDown" xlink:href="#dirArrow" transform="rotate(180) translate(-30 -48)" onmousedown="handlePan(0,1)">
                  <use xlink:href="#rim" fill="#404040">
                        <set attributeName="fill" to="#808080" begin="arrowDown.mouseover" end="arrowDown.mouseout"/>
                  </use>
                  <path fill="none" stroke="white" stroke-width="1.5" d="M0,-3.0v7 M-2.5,-0.5L0,-3.0L2.5,-0.5"/>
                </g>
                <g id="arrowLeft" xlink:href="#dirArrow" transform="rotate(270) translate(-36 17)" onmousedown="handlePan(-1,0)">
                  <use xlink:href="#rim" fill="#404040">
                        <set attributeName="fill" to="#808080" begin="arrowLeft.mouseover" end="arrowLeft.mouseout"/>
                  </use>
                  <path fill="none" stroke="white" stroke-width="1.5" d="M0,-3.0v7 M-2.5,-0.5L0,-3.0L2.5,-0.5"/>
                </g>
        </g>
        <svg viewBox="0 0 15 15" width="100%" height="30px" preserveAspectRatio="xMaxYMin meet">
         <g id="arrow_out" transform="scale(0.3 0.3)">
          <a xlink:href="sx1280_8h_a5c13f6957fa2593d47760a6062a21aac_cgraph_org.svg" target="_base">
           <rect id="button" ry="5" rx="5" y="6" x="6" height="38" width="38"
                fill="#f2f5e9" fill-opacity="0.5" stroke="#606060" stroke-width="1.0"/>
           <path id="arrow"
             d="M 11.500037,31.436501 C 11.940474,20.09759 22.043105,11.32322 32.158766,21.979434 L 37.068811,17.246167 C 37.068811,17.246167 37.088388,32 37.088388,32 L 22.160133,31.978069 C 22.160133,31.978069 26.997745,27.140456 26.997745,27.140456 C 18.528582,18.264221 13.291696,25.230495 11.500037,31.436501 z"
             style="fill:#404040;"/>
          </a>
         </g>
        </svg>
</svg>
